<?xml version="1.0" standalone="no"?>
<!DOCTYPE svg PUBLIC "-//W3C//DTD SVG 1.1//EN" "http://www.w3.org/Graphics/SVG/1.1/DTD/svg11.dtd" >
<svg xmlns="http://www.w3.org/2000/svg">
<metadata>Generated by IcoMoon</metadata>
<defs>
<font id="icomoon" horiz-adv-x="1024">
<font-face units-per-em="1024" ascent="960" descent="-64" />
<missing-glyph horiz-adv-x="1024" />
<glyph unicode="&#x20;" horiz-adv-x="512" d="" />
<glyph unicode="&#xe900;" glyph-name="01" horiz-adv-x="5824" d="M5366.596 320.522v-263.314c0-8.359 6.269-14.629 14.629-14.629h121.208c8.359 0 14.629 6.269 14.629 14.629v263.314h259.135c8.359 0 14.629 6.269 14.629 14.629v121.208c0 8.359-6.269 14.629-12.539 14.629h-259.135c0 263.314 0 263.314 0 263.314 0 6.269-6.269 12.539-14.629 12.539h-121.208c-8.359 0-14.629-6.269-14.629-12.539v-263.314h-259.135c-8.359 0-14.629-6.269-14.629-14.629v-123.298c0-8.359 6.269-14.629 14.629-14.629h257.045zM4422.008 295.445c0-52.245-2.090-83.592-20.898-106.58-20.898-22.988-56.424-33.437-104.49-33.437h-22.988c-89.861 0-140.016 35.527-140.016 104.49 0 31.347 12.539 60.604 31.347 77.322 22.988 18.808 56.424 29.257 112.849 29.257h12.539c43.886 0 91.951-4.18 131.657-14.629v-56.424zM4434.547 732.212c-39.706 16.718-100.31 29.257-177.633 29.257h-10.449c-48.065 0-112.849-6.269-173.453-16.718-10.449-2.090-14.629-8.359-14.629-18.808v-89.861c0-12.539 6.269-14.629 18.808-12.539 54.335 8.359 110.759 14.629 154.645 14.629h6.269c60.604 0 110.759-6.269 142.106-25.078 29.257-20.898 43.886-50.155 43.886-114.939v-18.808c-43.886 8.359-100.31 16.718-148.376 16.718h-12.539c-83.592 0-160.914-20.898-211.069-66.873-37.616-35.527-62.694-89.861-62.694-158.824v-6.269c0-140.016 96.131-225.698 288.392-225.698h33.437c77.322 0 148.376 22.988 192.261 58.514 50.155 41.796 68.963 104.49 68.963 202.71v202.71c-2.090 129.567-56.424 192.261-137.927 229.878zM825.469 759.38h-35.527c-104.49 0-171.363-27.167-204.8-68.963v0c-33.437 41.796-106.58 68.963-208.98 68.963h-41.796c-117.029 0-213.159-41.796-250.776-125.388-16.718-37.616-20.898-85.682-20.898-137.927v-438.857c0-8.359 6.269-16.718 14.629-16.718h117.029c10.449 0 14.629 6.269 14.629 16.718v365.714c0 52.245 0 89.861 4.18 112.849 6.269 60.604 52.245 91.951 137.927 91.951h10.449c85.682 0 133.747-29.257 140.016-91.951 2.090-22.988 4.18-60.604 4.18-112.849v-365.714c0-10.449 6.269-16.718 16.718-16.718h117.029c10.449 0 14.629 8.359 14.629 16.718v367.804c0 52.245 2.090 89.861 4.18 112.849 6.269 60.604 54.335 91.951 140.016 91.951h10.449c85.682 0 129.567-29.257 137.927-91.951 2.090-22.988 4.18-60.604 4.18-112.849v-365.714c0-10.449 6.269-16.718 14.629-16.718h119.118c10.449 0 14.629 8.359 14.629 16.718v438.857c0 52.245-6.269 100.31-20.898 137.927-41.796 83.592-137.927 123.298-252.865 123.298zM2537.012 746.841h-121.208c-14.629 0-16.718-4.18-18.808-16.718-6.269-89.861-25.078-194.351-52.245-288.392-29.257-96.131-64.784-188.082-98.22-257.045-33.437 68.963-71.053 160.914-98.22 257.045-27.167 94.041-45.976 198.531-52.245 288.392 0 12.539-8.359 16.718-20.898 16.718h-121.208c-12.539 0-16.718-6.269-16.718-18.808 16.718-242.416 91.951-428.408 219.429-672.914 4.18-8.359 10.449-12.539 22.988-12.539h129.567c10.449 0 16.718 4.18 20.898 12.539 83.592 158.824 211.069 430.498 221.518 677.094 2.090 10.449-2.090 14.629-14.629 14.629zM2808.686 746.841h-119.118c-10.449 0-14.629-4.18-14.629-12.539v-677.094c0-10.449 4.18-14.629 14.629-14.629h119.118c10.449 0 14.629 4.18 14.629 14.629v675.004c0 10.449-4.18 14.629-14.629 14.629zM3276.8 456.359l-94.041 35.527c-58.514 22.988-75.233 43.886-75.233 73.143 0 50.155 50.155 71.053 129.567 71.053h6.269c45.976 0 102.4-6.269 169.273-18.808 12.539-2.090 18.808 0 18.808 14.629v91.951c0 12.539-4.18 14.629-14.629 18.808-43.886 8.359-123.298 18.808-167.184 18.808h-10.449c-94.041 0-163.004-16.718-208.98-58.514-37.616-33.437-62.694-83.592-62.694-142.106v-4.18c0-54.335 18.808-100.31 52.245-129.567 29.257-29.257 71.053-45.976 125.388-66.873 31.347-12.539 58.514-20.898 89.861-33.437 68.963-25.078 98.22-43.886 98.22-85.682 0-54.335-45.976-83.592-148.376-83.592h-4.18c-58.514 0-123.298 12.539-183.902 31.347-12.539 4.18-18.808 0-18.808-12.539v-94.041c0-10.449 2.090-18.808 14.629-22.988 56.424-18.808 131.657-31.347 196.441-31.347h4.18c181.812 0 282.122 81.502 282.122 215.249v2.090c0 50.155-16.718 98.22-48.065 129.567-33.437 31.347-79.412 54.335-150.465 81.502zM3874.482 172.147h-14.629c-48.065 0-77.322 10.449-94.041 29.257-22.988 25.078-29.257 66.873-29.257 114.939v305.11h131.657c10.449 0 14.629 4.18 14.629 14.629v98.22c0 10.449-4.18 14.629-14.629 14.629h-131.657v125.388c0 10.449-4.18 14.629-14.629 14.629h-119.118c-10.449 0-14.629-4.18-14.629-14.629v-564.245c0-98.22 18.808-160.914 62.694-204.8 39.706-39.706 102.4-62.694 192.261-62.694h31.347c10.449 0 16.718 6.269 16.718 14.629v100.31c0 10.449-6.269 14.629-16.718 14.629zM1550.629 759.38h-18.808c-154.645 0-250.776-48.065-286.302-171.363-12.539-45.976-20.898-102.4-20.898-192.261 0-91.951 8.359-146.286 22.988-194.351 35.527-123.298 131.657-171.363 286.302-171.363h18.808c154.645 0 250.776 48.065 286.302 171.363 12.539 48.065 20.898 102.4 20.898 194.351s-8.359 146.286-22.988 194.351c-35.527 121.208-131.657 169.273-286.302 169.273zM1703.184 293.355c-12.539-114.939-68.963-131.657-160.914-131.657h-4.18c-91.951 0-148.376 16.718-158.824 131.657-4.18 35.527-6.269 62.694-6.269 102.4s2.090 66.873 6.269 102.4c10.449 114.939 68.963 131.657 158.824 131.657h4.18c91.951 0 148.376-16.718 160.914-131.657 4.18-33.437 6.269-62.694 6.269-102.4s-2.090-68.963-6.269-102.4zM5040.588 759.38h-79.412c-114.939 0-204.8-39.706-242.416-123.298-16.718-35.527-20.898-83.592-20.898-137.927v-443.037c0-10.449 4.18-14.629 14.629-14.629h119.118c10.449 0 14.629 4.18 14.629 14.629v371.984c0 52.245 0 89.861 4.18 114.939 6.269 60.604 43.886 89.861 129.567 89.861h62.694c10.449 0 14.629 4.18 14.629 14.629v100.31c0 8.359-4.18 12.539-16.718 12.539z" />
<glyph unicode="&#xe901;" glyph-name="02" d="M1007.067 506.667h-112.267v108.8h-84.533v-108.8h-108.533v-84.8h108.533v-112.533h84.533v112.533h112.267zM616.4 625.333c-16.533 38.133-42.933 62.533-76.933 64.667-37.6 2.4-80.8-22.533-103.467-70.933-20.933-44.667-37.6-90.4-47.733-113.867-10.267-23.733-25.333-38.267-48.533-40.8-28.4-2.933-52.8 17.6-70.8 47.067-15.6 25.6-46.533 74.4-63.067 90.8-15.6 15.333-33.333 34.667-70.267 34-29.2-0.533-83.2-14.933-107.867-115.6-10.8-43.867-14.933-89.6-5.733-144 8.4-50.267 23.467-93.467 33.6-117.333 3.467-8.267 8.933-16.8 13.067-22.133 12-15.2 32-14.267 40.4-10.133 9.2 4.533 19.733 15.467 15.867 40.267-1.867 12-7.2 29.6-10.133 39.333-9.2 30-21.333 66.133-22.4 91.867-1.467 34.4 12.133 38.933 21.2 40.933 15.2 3.333 27.867-13.333 40-34.267 14.4-24.933 39.2-69.067 59.333-102.8 18.267-30.4 51.733-63.067 105.733-60.8 55.067 2.267 95.467 23.333 116.4 89.333 15.6 49.333 26.267 86.4 43.467 124.133 19.733 43.467 46 66.8 68.133 59.6 20.533-6.533 25.733-26.667 25.867-56.267 0.267-26.133-2.8-54.933-5.2-76-0.8-7.733-2.4-23.067-1.733-31.733 1.2-16.8 8.533-33.733 27.467-36.4 20.267-2.933 36.4 13.333 42.933 32.8 2.533 7.733 4.8 19.467 5.867 27.867 6 42.267 7.467 70.533 4.8 113.733-3.2 50.8-13.067 96.8-30.267 136.667z" />
<glyph unicode="&#xe902;" glyph-name="03" d="M499.352 458.088h25.295v-20.175h-25.295v20.175z" />
<glyph unicode="&#xe903;" glyph-name="04" d="M499.352 458.088h25.295v-20.175h-25.295v20.175z" />
<glyph unicode="&#xe904;" glyph-name="05" d="M499.352 458.088h25.295v-20.175h-25.295v20.175z" />
<glyph unicode="&#xe905;" glyph-name="06" d="M499.352 458.088h25.295v-20.175h-25.295v20.175z" />
<glyph unicode="&#xe906;" glyph-name="07" d="M499.352 458.088h25.295v-20.175h-25.295v20.175z" />
<glyph unicode="&#xe907;" glyph-name="08" d="M499.352 458.088h25.295v-20.175h-25.295v20.175z" />
<glyph unicode="&#xe908;" glyph-name="09" d="M499.352 458.088h25.295v-20.175h-25.295v20.175z" />
<glyph unicode="&#xe909;" glyph-name="10" d="M499.352 458.088h25.295v-20.175h-25.295v20.175z" />
<glyph unicode="&#xe90a;" glyph-name="11" d="M499.352 458.088h25.295v-20.175h-25.295v20.175z" />
<glyph unicode="&#xe90b;" glyph-name="12" d="M499.352 458.088h25.295v-20.175h-25.295v20.175z" />
<glyph unicode="&#xe90c;" glyph-name="13" d="M499.352 458.088h25.295v-20.175h-25.295v20.175z" />
<glyph unicode="&#xe90d;" glyph-name="14" d="M499.352 458.088h25.295v-20.175h-25.295v20.175z" />
<glyph unicode="&#xe90e;" glyph-name="15" d="M499.352 458.088h25.295v-20.175h-25.295v20.175z" />
<glyph unicode="&#xe90f;" glyph-name="16" d="M499.352 458.088h25.295v-20.175h-25.295v20.175z" />
<glyph unicode="&#xe910;" glyph-name="17" d="M932.141 27.859h-840.282c-26.734 0-48.478 21.745-48.478 48.478v743.326c0 26.732 21.744 48.478 48.478 48.478h840.281c26.729 0 48.478-21.745 48.478-48.478v-743.326c0-26.733-21.748-48.478-48.477-48.478zM91.859 835.822c-8.9 0-16.159-7.244-16.159-16.159v-743.326c0-8.916 7.259-16.159 16.159-16.159h840.281c8.9 0 16.159 7.243 16.159 16.159v743.326c0 8.916-7.259 16.159-16.159 16.159h-840.281zM59.541 383.363h193.911v-32.318h-193.911v32.318zM59.541 221.77h193.911v-32.318h-193.911v32.318zM59.541 706.548h193.911v-32.318h-193.911v32.318zM59.541 544.955h193.911v-32.318h-193.911v32.318zM237.292 857.189h32.319v-813.17h-32.319v813.17zM770.548 383.363h193.911v-32.318h-193.911v32.318zM770.548 221.77h193.911v-32.318h-193.911v32.318zM770.548 706.548h193.911v-32.318h-193.911v32.318zM770.548 544.955h193.911v-32.318h-193.911v32.318zM754.389 851.981h32.318v-807.963h-32.318v807.963zM269.611 480.318h517.096v-32.318h-517.096v32.318z" />
<glyph unicode="&#xe911;" glyph-name="20" horiz-adv-x="908" d="M871.238 440.646c11.59 39.075 17.501 79.546 17.501 120.529 0 42.985-6.4 85.411-19.037 126.115-0.023 0.093-0.093 0.14-0.14 0.233-0.047 0.070 0 0.116-0.047 0.186-54.97 165.492-216.297 272.291-411.136 272.291h-0.652c-163.561-0.163-356.143-84.015-417.699-270.848-0.023-0.047 0-0.116-0.023-0.186 0-0.047-0.047-0.070-0.047-0.116-12.986-41.239-19.572-84.224-19.572-127.674 0-40.844 5.888-81.338 17.524-120.529-23.087-17.385-37.19-44.614-37.19-74.007 0-44.172 31.325-81.292 73.914-90.508 28.253-189.393 244.876-340.131 379.927-340.131 150.481 0 352.512 157.812 379.834 339.875 42.193 9.030 73.961 46.289 73.961 90.764 0 29.417-14.080 56.623-37.12 74.007zM84.271 674.63c54.295 164.701 226.7 238.615 373.504 238.778h0.559c138.845 0 307.921-63.046 366.895-240.081 11.217-36.189 16.966-73.914 16.966-112.128 0-35.281-5.213-70.074-14.918-103.82-26.671 5.795-50.479 0.186-69.236-9.658l-12.684 142.988c-0.326 3.537-1.489 6.703-3.188 9.565 4.678 8.052 4.375 18.432-1.769 26.182-8.052 10.1-22.691 11.776-32.698 3.724-73.495-58.461-157.999-88.157-251.113-88.157-101.655 0-189.905 27.415-255.209 79.244-10.077 7.959-24.716 6.284-32.698-3.793-5.050-6.377-5.818-14.499-3.444-21.713-0.559-1.676-1.35-3.258-1.513-5.073l-12.66-142.988c-18.781 9.821-42.543 15.43-69.236 9.658-9.705 33.839-14.895 68.631-14.895 103.82 0 38.633 5.841 76.777 17.338 113.455zM816.71 320.326c-12.963 1.513-25.414-8.239-26.461-21.271-13.894-174.639-213.062-316.439-335.686-316.439-119.785 0-322.071 144.849-335.732 316.439-0.954 12.125-12.288 21.364-24.436 21.364-25.972 0-47.127 20.759-47.127 46.22 0 16.57 9.425 31.511 23.924 39.68 2.839 0.093 5.725 0.582 8.518 1.769 41.519 17.78 69.12-16.081 72.029-19.875 4.468-6.004 11.427-9.356 18.665-9.356 2.118 0 4.236 0.303 6.33 0.861 9.286 2.63 16.012 10.729 16.849 20.364l14.173 160.186c68.585-42.426 153.577-64.884 248.832-64.884 88.995 0 170.892 24.483 244.084 72.448l14.848-167.75c0.838-9.588 7.517-17.548 16.733-20.224 2.118-0.605 4.305-0.931 6.447-0.931 7.145 0 14.057 3.328 18.548 9.193 3.025 3.887 30.65 37.748 72.169 19.968 2.769-1.187 5.632-1.676 8.471-1.722 14.499-8.239 23.924-23.133 23.924-39.727 0-25.507-21.132-46.22-45.103-46.313zM512.721 215.273h-93.091c-12.847 0-23.273-10.426-23.273-23.273s10.426-23.273 23.273-23.273h93.091c12.87 0 23.273 10.426 23.273 23.273s-10.403 23.273-23.273 23.273zM349.812 389.818c0-19.28-15.629-34.909-34.909-34.909s-34.909 15.629-34.909 34.909c0 19.28 15.629 34.909 34.909 34.909s34.909-15.629 34.909-34.909zM629.085 389.818c0-19.28-15.629-34.909-34.909-34.909s-34.909 15.629-34.909 34.909c0 19.28 15.629 34.909 34.909 34.909s34.909-15.629 34.909-34.909z" />
<glyph unicode="&#xe912;" glyph-name="21" d="M710.751 668.66c-5.406 4.263-12.383 6.025-19.123 4.858-6.835-1.167-12.764-5.191-16.384-11.002-72.561-117.069-190.75-186.987-316.13-186.987-48.009 0-95.423 10.288-140.907 30.553-6.168 2.739-13.193 2.786-19.361 0.119-6.215-2.667-10.954-7.787-13.169-14.098-15.836-45.58-23.838-93.041-23.838-141.169 0-221.017 162.602-414.934 347.946-414.934 185.368 0 347.969 193.917 347.922 414.934 0.024 125.881-54.915 244.688-146.956 317.726zM509.785-16.253c-159.768 0-299.889 171.58-299.889 367.187 0 34.364 4.596 68.346 13.693 101.376 44.008-16.313 89.469-24.552 135.549-24.552 133.525 0 259.382 69.132 341.635 186.273 68.679-64.726 108.949-161.125 108.949-263.097 0-195.608-140.145-367.187-299.937-367.187zM772.715 893.488c-270.169 148.242-516.453 3.334-526.026-2.477-150.742-83.73-235.687-241.926-245.689-457.514-7.43-159.982 28.362-293.626 29.887-299.222 2.096-7.668 7.811-13.741 15.265-16.384l136.43-48.009c12.574-4.477 26.338 2.119 30.744 14.598 4.429 12.526-2.143 26.291-14.693 30.696l-124.142 43.675c-18.218 78.943-105.21 523.026 196.417 690.605 2.286 1.357 232.543 136.883 478.541 1.905 308.224-169.151 219.969-613.757 201.537-692.486l-124.142-43.722c-12.598-4.406-19.242-18.17-14.741-30.696 3.477-9.859 12.788-16.003 22.695-16.003 2.667 0 5.358 0.452 8.049 1.381l136.454 48.009c7.454 2.667 13.074 8.692 15.169 16.313 1.524 5.525 148.718 556.008-221.756 759.332zM566.724 182.57c-17.408-17.384-35.769-26.195-54.605-26.195h-0.048c-32.625 0.024-58.654 25.624-59.082 26.052-9.264 9.454-24.433 9.645-33.887 0.405-9.526-9.287-9.692-24.505-0.452-33.983 1.643-1.643 39.817-40.198 92.779-40.555h0.714c32.054 0 61.869 13.622 88.564 40.317 9.407 9.407 9.407 24.576 0 33.959-9.407 9.407-24.576 9.407-33.983 0zM460.967 354.054c0 13.217-10.788 24.004-24.028 24.004h-50.414c-13.241 0-24.028-10.788-24.028-24.004 0-13.288 10.788-24.076 24.028-24.076h50.414c13.241 0 24.028 10.788 24.028 24.076zM641.405 378.035h-50.367c-13.217 0-24.052-10.788-24.052-24.004 0-13.288 10.835-24.076 24.052-24.076h50.367c13.288 0 24.004 10.788 24.052 24.076-0.024 13.217-10.764 24.004-24.052 24.004z" />
<glyph unicode="&#xe913;" glyph-name="100" d="M512 960c-282.323 0-512-229.677-512-512 0-282.338 229.677-512 512-512s512 229.662 512 512c0 282.323-229.677 512-512 512zM512-33.882c-265.713 0-481.882 216.154-481.882 481.882s216.169 481.882 481.882 481.882c265.713 0 481.882-216.169 481.882-481.882s-216.169-481.882-481.882-481.882zM346.353 402.808c24.952 0 45.176-20.224 45.176-45.176s-20.224-45.176-45.176-45.176-45.176 20.224-45.176 45.176 20.224 45.176 45.176 45.176zM512 402.808c24.937 0 45.176-20.224 45.176-45.176s-20.239-45.176-45.176-45.176c-24.952 0-45.176 20.224-45.176 45.176s20.224 45.176 45.176 45.176zM677.647 402.808c24.937 0 45.176-20.224 45.176-45.176s-20.239-45.176-45.176-45.176-45.176 20.224-45.176 45.176 20.239 45.176 45.176 45.176z" />
<glyph unicode="&#xe914;" glyph-name="101" d="M512 960c-282.323 0-512-229.677-512-512s229.677-512 512-512 512 229.677 512 512-229.677 512-512 512zM346.353 312.471c-24.952 0-45.176 20.224-45.176 45.176s20.224 45.176 45.176 45.176 45.176-20.224 45.176-45.176-20.224-45.176-45.176-45.176zM512 312.471c-24.952 0-45.176 20.224-45.176 45.176s20.224 45.176 45.176 45.176 45.176-20.224 45.176-45.176-20.224-45.176-45.176-45.176zM677.647 312.471c-24.952 0-45.176 20.224-45.176 45.176s20.224 45.176 45.176 45.176 45.176-20.224 45.176-45.176-20.224-45.176-45.176-45.176z" />
<glyph unicode="&#xe915;" glyph-name="104" d="M512.587 960c-282.323 0-512-229.677-512-512s229.677-512 512-512 512 229.677 512 512-229.677 512-512 512zM512.587-33.882c-265.713 0-481.882 216.154-481.882 481.882 0 265.713 216.169 481.882 481.882 481.882s481.882-216.169 481.882-481.882c0-265.728-216.169-481.882-481.882-481.882zM324.563 277.594v382.991c0 16.61 13.508 30.118 30.118 30.118h315.814c16.625 0 30.118-13.508 30.118-30.118v-272.836h30.118v272.836c0 33.205-27.031 60.235-60.235 60.235h-315.814c-33.22 0-60.235-27.031-60.235-60.235v-382.976c0-33.205 27.016-60.235 60.235-60.235h187.437v30.088h-187.437c-16.61 0.015-30.118 13.523-30.118 30.133zM753.453 356.698c-20.525 0-40.147-8.508-54.257-23.236-14.125 14.728-33.732 23.236-54.257 23.236-41.728 0-75.701-34.409-75.701-76.74 0-71.213 108.484-150.272 129.958-150.272s129.943 79.059 129.943 150.272c0.015 42.33-33.928 76.74-75.686 76.74zM753.438 327.002c25.359 0 45.99-21.082 45.99-46.999 0-51.878-83.426-113.032-100.051-120.154-16.67 6.987-100.412 67.629-100.412 120.154 0 25.916 20.646 46.999 46.005 46.999 17.318 0 33.024-9.848 40.93-25.72l13.312-26.669 13.297 26.669c7.906 15.872 23.597 25.72 40.93 25.72zM633.841 620.408h-242.824c-8.312 0-15.059-6.746-15.059-15.059s6.746-15.059 15.059-15.059h242.839c8.297 0 15.059 6.731 15.044 15.059 0 8.312-6.746 15.059-15.059 15.059zM633.841 529.227h-242.824c-8.312 0-15.059-6.746-15.059-15.059s6.746-15.059 15.059-15.059h242.839c8.297 0 15.044 6.746 15.044 15.059s-6.746 15.059-15.059 15.059zM633.841 446.404h-242.824c-8.312 0-15.059-6.761-15.059-15.059 0-8.343 6.746-15.059 15.059-15.059h242.839c8.297 0 15.044 6.716 15.044 15.059 0 8.297-6.746 15.059-15.059 15.059zM534.588 365.688h-143.571c-8.312 0-15.059-6.746-15.059-15.059s6.746-15.059 15.059-15.059h143.571c8.312 0 15.059 6.746 15.059 15.059s-6.746 15.059-15.059 15.059z" />
<glyph unicode="&#xe916;" glyph-name="105" d="M752.851 327.002c-17.318 0-33.009-9.848-40.945-25.705l-13.297-26.669-13.297 26.669c-7.906 15.857-23.612 25.705-40.96 25.705-25.374 0-46.020-21.082-46.020-46.999 0-52.525 83.757-113.212 100.412-120.154 16.625 7.153 100.051 68.277 100.051 120.154 0.030 25.901-20.555 46.999-45.944 46.999zM512 960c-282.323 0-512-229.677-512-512s229.677-512 512-512 512 229.677 512 512-229.677 512-512 512zM541.53 217.389h-187.437c-33.205 0-60.235 27-60.235 60.235v382.946c0 33.22 27.031 60.235 60.235 60.235h315.814c33.205 0 60.235-27.016 60.235-60.235v-272.806h-30.118v272.806c0 16.625-13.493 30.118-30.118 30.118h-315.814c-16.61 0-30.118-13.493-30.118-30.118v-382.961c0-16.625 13.508-30.118 30.118-30.118h187.437v-30.103zM633.254 499.095h-242.824c-8.312 0-15.059 6.746-15.059 15.059 0 8.328 6.746 15.059 15.059 15.059h242.824c8.343 0 15.059-6.731 15.059-15.059 0-8.312-6.731-15.059-15.059-15.059zM648.312 431.33c0-8.297-6.716-15.059-15.059-15.059h-242.824c-8.312 0-15.059 6.761-15.059 15.059 0 8.328 6.746 15.059 15.059 15.059h242.824c8.328 0 15.059-6.746 15.059-15.059zM633.254 590.276h-242.824c-8.312 0-15.059 6.746-15.059 15.059 0 8.343 6.746 15.059 15.059 15.059h242.824c8.343 0 15.059-6.716 15.059-15.059 0-8.312-6.731-15.059-15.059-15.059zM534.001 335.556h-143.571c-8.312 0-15.059 6.761-15.059 15.059 0 8.328 6.746 15.059 15.059 15.059h143.571c8.328 0 15.059-6.731 15.059-15.059 0-8.297-6.731-15.059-15.059-15.059zM698.624 129.702c-21.459 0-129.943 79.059-129.943 150.272 0 42.315 33.973 76.725 75.701 76.725 20.495 0 40.132-8.493 54.242-23.236 14.125 14.743 33.717 23.236 54.272 23.236 41.728 0 75.671-34.409 75.671-76.725-0.015-71.213-108.484-150.272-129.943-150.272z" />
<glyph unicode="&#xe917;" glyph-name="108" d="M615.213 327.063c-48.038-48.053-48.038-126.268 0-174.351 48.068-48.038 126.328-48.038 174.381 0 48.053 48.083 48.053 126.298 0 174.351-48.083 48.083-126.313 48.083-174.381 0zM768.271 174.035c-36.322-36.352-95.443-36.352-131.765 0-36.322 36.292-36.322 95.413 0 131.765 36.352 36.322 95.443 36.292 131.765 0 36.352-36.322 36.352-95.473 0-131.765zM747.61 255.654l-90.443-0.467c-8.312 0-15.059-6.716-15.059-15.059 0-8.328 6.746-15.059 15.059-15.059h90.413c4.156 0 8.403 1.672 11.098 4.427 2.756 2.741 3.991 6.957 3.991 11.098 0 8.282-6.746 15.059-15.059 15.059zM512 960c-282.323 0-512-229.677-512-512s229.677-512 512-512 512 229.677 512 512-229.677 512-512 512zM512-33.882c-265.728 0-481.882 216.154-481.882 481.882 0 265.713 216.154 481.882 481.882 481.882 265.713 0 481.882-216.169 481.882-481.882 0-265.728-216.169-481.882-481.882-481.882zM323.976 277.624v382.961c0 16.61 13.493 30.118 30.118 30.118h315.814c16.625 0 30.118-13.508 30.118-30.118v-272.836h30.118v272.836c0 33.205-27.031 60.235-60.235 60.235h-315.814c-33.22 0-60.235-27.031-60.235-60.235v-382.976c0-33.235 27.016-60.235 60.235-60.235h187.437v30.118h-187.437c-16.625 0.015-30.118 13.493-30.118 30.133zM633.254 620.408h-242.824c-8.312 0-15.059-6.746-15.059-15.059s6.746-15.059 15.059-15.059h242.824c8.312 0 15.059 6.731 15.059 15.059 0 8.312-6.746 15.059-15.059 15.059zM633.254 529.227h-242.824c-8.312 0-15.059-6.746-15.059-15.059s6.746-15.059 15.059-15.059h242.824c8.312 0 15.059 6.746 15.059 15.059s-6.746 15.059-15.059 15.059zM633.254 446.404h-242.824c-8.312 0-15.059-6.761-15.059-15.059 0-8.343 6.746-15.059 15.059-15.059h242.824c8.312 0 15.059 6.716 15.059 15.059 0 8.297-6.746 15.059-15.059 15.059zM534.001 365.688h-143.586c-8.297 0-15.059-6.746-15.059-15.059s6.761-15.059 15.059-15.059h143.586c8.328 0 15.059 6.746 15.059 15.059s-6.731 15.059-15.059 15.059z" />
<glyph unicode="&#xe918;" glyph-name="109" d="M511.834 960c-282.323 0-512-229.677-512-512 0-282.308 229.677-511.985 512-511.985s512 229.677 512 511.985c-0.015 282.323-229.692 512-512 512zM541.365 217.359h-187.437c-33.205 0-60.235 27.031-60.235 60.235v382.991c0 33.22 27.031 60.235 60.235 60.235h315.844c33.205 0 60.235-27.016 60.235-60.235v-272.821h-30.118v272.821c0 16.61-13.493 30.118-30.118 30.118h-315.844c-16.625 0-30.118-13.508-30.118-30.118v-383.006c0-16.595 13.493-30.118 30.118-30.118h187.437v-30.103zM633.103 499.11h-242.824c-8.328 0-15.059 6.731-15.059 15.059s6.731 15.059 15.059 15.059h242.824c8.297 0 15.059-6.731 15.059-15.059s-6.761-15.059-15.059-15.059zM648.162 431.33c0-8.297-6.761-15.059-15.059-15.059h-242.824c-8.328 0-15.059 6.761-15.059 15.059 0 8.358 6.731 15.074 15.059 15.074h242.824c8.297 0 15.059-6.761 15.059-15.074zM633.103 590.276h-242.824c-8.328 0-15.059 6.746-15.059 15.059s6.731 15.059 15.059 15.059h242.824c8.297 0 15.059-6.746 15.059-15.059s-6.761-15.059-15.059-15.059zM533.835 335.556h-143.556c-8.328 0-15.059 6.731-15.059 15.059s6.731 15.059 15.059 15.059h143.556c8.328 0 15.059-6.731 15.059-15.059s-6.731-15.059-15.059-15.059zM789.429 152.712c-48.068-48.038-126.298-48.038-174.381 0-48.038 48.053-48.038 126.298 0 174.351 48.083 48.083 126.313 48.083 174.381 0 48.038-48.068 48.038-126.298 0-174.351zM636.341 305.769c-36.307-36.322-36.307-95.443 0-131.765 36.322-36.322 95.458-36.322 131.765 0 36.352 36.322 36.352 95.443 0 131.765-36.277 36.322-95.443 36.352-131.765 0zM758.543 229.466c-2.726-2.741-6.942-4.412-11.113-4.412h-90.413c-8.297 0-15.059 6.731-15.059 15.059s6.761 15.059 15.059 15.059l90.458 0.467c8.297 0 15.059-6.761 15.059-15.059 0-4.171-1.235-8.373-3.991-11.113z" />
<glyph unicode="&#xe919;" glyph-name="112" d="M512 960c-282.323 0-512-229.662-512-512s229.677-512 512-512 512 229.677 512 512c0 282.338-229.677 512-512 512zM512-33.882c-265.713 0-481.882 216.169-481.882 481.882s216.169 481.882 481.882 481.882c265.728 0 481.882-216.169 481.882-481.882s-216.154-481.882-481.882-481.882zM789.655 493.854c-6.716 7.198-18.974 15.782-38.912 15.782h-156.040c32.693 90.308 13.824 152.666-16.625 181.865-17.89 17.167-40.358 23.025-57.224 14.908-7.108-3.418-23.341-14.592-20.616-44.198 5.828-63.503-53.609-127.172-87.356-157.907v9.924c0 8.328-6.731 15.059-15.059 15.059h-135.469c-8.328 0-15.059-6.731-15.059-15.059v-290.319c0-8.328 6.731-15.059 15.059-15.059h135.469c8.328 0 15.059 6.731 15.059 15.059v16.113c114.537-33.295 239.345-35.494 269.643-35.494 3.765 0 6.039 0.030 6.716 0.045 38.761 0 56.139 22.362 56.139 44.559 0 7.213-2.108 14.532-5.692 21.293 22.618 7.108 34.53 27.302 34.56 47.556 0 8.629-2.093 16.941-5.963 24.215 7.846 3.177 13.508 7.846 17.393 12.002 8.614 9.321 13.342 21.655 13.342 34.756 0 11.851-4.081 23.793-12.032 32.979 10.571 9.728 16.008 23.552 16.008 37.331 0.045 13.116-4.728 25.404-13.342 34.59zM382.795 238.968h-105.352v260.201h105.352v-260.201zM750.743 438.995h-3.855c-0.060 0-0.090-0.030-0.151-0.030h-45.342c-8.312 0-15.059-6.731-15.059-15.059 0-8.297 6.746-15.059 15.059-15.059h45.493c0.030 0 0.090 0 0.12 0 16.143-0.030 21.911-10.285 21.911-19.893 0-9.502-5.783-20.616-22.031-20.616h-24.907c-0.030 0-0.030-0.015-0.060-0.015h-32.617c-8.328 0-15.059-6.731-15.059-15.059 0-8.297 6.731-15.059 15.059-15.059h32.678c0.030 0 0.030 0.015 0.060 0.015 7.288-0.015 12.996-2.138 16.881-6.264 3.328-3.539 5.24-8.629 5.24-13.975 0-9.352-5.828-20.314-22.182-20.314h-28.506c-0.105 0-0.196 0.030-0.301 0.030h-17.423c-8.312 0-15.059-6.731-15.059-15.059 0-8.358 6.746-15.059 15.059-15.059h17.272c0.060 0 0.090-0.030 0.151-0.030h0.316c14.848-0.181 21.79-11.038 21.79-18.447 0-3.494-1.4-6.475-4.186-8.794-4.442-3.644-12.183-5.647-22.076-5.647-1.521-0.090-149.685-1.943-276.119 36.759v193.16c22.664 17.92 126.088 105.201 117.338 200.388-0.678 7.394 0.753 12.875 3.72 14.306 4.307 2.048 13.944-0.557 23.266-9.502 25.419-24.425 39.213-81.694 1.461-169.231-2.033-4.653-1.551-9.999 1.265-14.231 2.801-4.232 7.499-6.792 12.559-6.792h178.236c7.304 0 13.056-2.108 16.941-6.264 3.328-3.539 5.24-8.629 5.24-13.96-0.015-9.367-5.813-20.299-22.182-20.299z" />
<glyph unicode="&#xe91a;" glyph-name="113" d="M512 960c-282.308 0-512-229.692-512-512 0-282.338 229.692-512 512-512 282.323 0 512 229.662 512 512 0 282.308-229.677 512-512 512zM799.036 388.939c0-13.101-4.713-25.434-13.342-34.741-3.87-4.171-9.547-8.824-17.393-12.032 3.885-7.273 5.963-15.556 5.963-24.2 0-20.239-11.927-40.478-34.545-47.556 3.569-6.776 5.692-14.095 5.692-21.308 0-22.197-17.318-44.559-56.154-44.559-0.648-0.015-2.921-0.045-6.641-0.045-30.298 0-155.121 2.229-269.688 35.524v-16.128c0-8.343-6.731-15.059-15.059-15.059h-135.484c-8.312 0-15.059 6.716-15.059 15.059v290.334c0 8.328 6.746 15.059 15.059 15.059h135.484c8.328 0 15.059-6.731 15.059-15.059v-9.924c33.777 30.735 93.184 94.389 87.356 157.892-2.726 29.606 13.508 40.764 20.616 44.198 16.851 8.117 39.319 2.244 57.224-14.908 30.434-29.184 49.288-91.543 16.61-181.85h156.040c19.938 0 32.181-8.584 38.912-15.782 8.644-9.201 13.387-21.474 13.387-34.56 0-13.779-5.421-27.648-16.023-37.331 7.921-9.246 11.987-21.173 11.987-33.024zM277.444 499.155h105.367v-260.201h-105.367v260.201zM701.38 438.965h49.348c16.354 0 22.182 10.963 22.182 20.329 0 5.331-1.912 10.406-5.24 13.96-3.885 4.156-9.608 6.264-16.941 6.264h-178.221c-5.060 0-9.773 2.545-12.559 6.776-2.801 4.232-3.268 9.592-1.265 14.246 37.768 87.537 24.034 144.791-1.446 169.201-9.321 8.975-18.944 11.565-23.266 9.517-2.967-1.446-4.412-6.912-3.735-14.291 8.764-95.187-94.63-182.453-117.308-200.388v-193.175c126.449-38.686 274.568-36.759 276.104-36.744 9.879 0 17.634 2.018 22.061 5.662 2.816 2.289 4.201 5.271 4.201 8.779 0 7.439-7.032 18.462-22.121 18.462h-17.438c-8.297 0-15.059 6.731-15.059 15.059s6.761 15.059 15.059 15.059h46.231c16.354 0 22.152 10.963 22.152 20.314 0 5.331-1.912 10.421-5.21 13.975-3.915 4.156-9.623 6.264-16.941 6.264h-32.708c-8.297 0-15.059 6.731-15.059 15.059 0 8.343 6.761 15.059 15.059 15.059h57.615c16.264 0 22.031 11.113 22.031 20.616 0 9.638-5.798 19.923-22.031 19.923h-45.493c-8.328 0-15.059 6.731-15.059 15.059s6.731 15.014 15.059 15.014z" />
<glyph unicode="&#xe91b;" glyph-name="116" d="M512 960c-282.323 0-512-229.677-512-512 0-282.338 229.677-512 512-512s512 229.662 512 512c0 282.323-229.677 512-512 512zM512-33.882c-265.713 0-481.882 216.154-481.882 481.882 0 265.713 216.169 481.882 481.882 481.882s481.882-216.169 481.882-481.882c0-265.728-216.169-481.882-481.882-481.882zM370.417 528.053h-135.484c-8.312 0-15.059-6.746-15.059-15.059v-290.334c0-8.312 6.746-15.059 15.059-15.059h135.484c8.312 0 15.059 6.746 15.059 15.059v290.334c0 8.312-6.746 15.059-15.059 15.059zM806.912 492.619c-6.761 7.198-18.974 15.782-38.912 15.782h-156.055c32.708 90.308 13.824 152.666-16.625 181.865-12.529 12.032-27.317 18.507-40.824 18.507-5.768 0-11.324-1.19-16.354-3.614-7.123-3.418-23.356-14.577-20.631-44.183 8.072-87.703-108.619-176.053-109.794-176.926-5.195-3.885-7.048-10.436-5.316-16.294v-204.529c-2.56-7.891 1.777-16.414 9.683-18.974 133.15-43.113 288.181-41.050 294.671-40.975h0.030c16.851 0 30.584 4.171 40.704 12.544 9.728 8.072 15.149 19.441 15.149 32 0 7.213-2.153 14.547-5.707 21.308 22.648 7.123 34.56 27.302 34.56 47.556 0 8.644-2.123 16.971-5.993 24.23 20.119 8.267 30.795 27.934 30.795 46.743 0 12.363-4.262 24.034-12.032 32.949 10.586 9.728 16.008 23.597 16.008 37.376 0 13.161-4.728 25.434-13.357 34.635z" />
<glyph unicode="&#xe91c;" glyph-name="117" d="M512 960c-282.323 0-512-229.677-512-512s229.662-512 512-512 512 229.677 512 512-229.677 512-512 512zM385.491 222.675c0-8.328-6.746-15.059-15.059-15.059h-135.499c-8.312 0-15.059 6.731-15.059 15.059v290.334c0 8.312 6.746 15.059 15.059 15.059h135.499c8.312 0 15.059-6.746 15.059-15.059v-290.334zM816.294 387.72c0-18.778-10.677-38.46-30.765-46.728 3.9-7.273 5.963-15.586 5.963-24.245 0-20.254-11.942-40.478-34.56-47.556 3.584-6.776 5.707-14.11 5.707-21.323 0-12.559-5.376-23.913-15.149-32-10.089-8.312-23.853-12.544-40.704-12.544h-0.030c-6.52-0.075-161.551-2.184-294.671 40.975-7.891 2.56-12.243 11.038-9.683 18.974v204.499c-1.732 5.888 0.12 12.424 5.331 16.294 1.175 0.904 117.82 89.239 109.794 176.926-2.741 29.621 13.493 40.779 20.616 44.213 5.030 2.424 10.556 3.599 16.354 3.599 13.493 0 28.296-6.49 40.855-18.507 30.434-29.184 49.288-91.558 16.595-181.85h156.055c19.938 0 32.181-8.568 38.912-15.797 8.614-9.201 13.387-21.459 13.387-34.56 0-13.779-5.436-27.648-16.008-37.331 7.74-8.99 12.002-20.646 12.002-33.039z" />
<glyph unicode="&#xe91d;" glyph-name="120" d="M512 960c-282.323 0-512-229.677-512-512s229.677-512 512-512 512 229.677 512 512-229.677 512-512 512zM512-33.882c-265.713 0-481.882 216.169-481.882 481.882s216.169 481.882 481.882 481.882c265.713 0 481.882-216.169 481.882-481.882s-216.169-481.882-481.882-481.882zM799.066 476.943c0 18.793-10.677 38.475-30.795 46.712 3.915 7.304 5.978 15.616 5.978 24.26 0 20.254-11.942 40.478-34.575 47.571 3.584 6.776 5.707 14.11 5.707 21.338 0 12.559-5.376 23.913-15.149 32-10.089 8.328-23.853 12.559-40.704 12.559-6.204 0.060-147.908 1.943-276.616-35.448v16.068c0 8.312-6.746 15.059-15.059 15.059h-135.499c-8.297 0-15.059-6.746-15.059-15.059v-290.319c0-8.312 6.761-15.059 15.059-15.059h135.499c8.312 0 15.059 6.746 15.059 15.059v9.939c33.762-30.735 93.199-94.419 87.371-157.907-2.741-29.591 13.493-40.764 20.616-44.198 5.030-2.394 10.571-3.599 16.339-3.599 13.493 0 28.296 6.475 40.824 18.507 30.434 29.184 49.318 91.558 16.625 181.88h156.040c19.908 0 32.151 8.523 38.912 15.767 8.644 9.171 13.417 21.474 13.417 34.56 0 13.794-5.436 27.648-16.023 37.346 7.755 8.93 12.032 20.585 12.032 32.964zM382.795 366.712h-105.382v260.216h105.382v-260.216zM767.684 392.644c-3.915-4.171-9.592-6.264-16.941-6.264h-178.236c-5.090 0-9.758-2.56-12.589-6.792-2.801-4.232-3.268-9.592-1.235-14.231 37.768-87.522 24.004-144.821-1.446-169.231-9.352-8.945-18.944-11.565-23.266-9.472-2.997 1.431-4.412 6.882-3.735 14.261 8.764 95.187-94.66 182.468-117.323 200.388v193.175c126.434 38.686 274.583 36.759 276.36 36.759 16.294 0 26.022-5.406 26.022-14.441 0-7.454-7.032-18.462-22.091-18.462h-17.438c-8.297 0-15.059-6.746-15.059-15.059s6.761-15.059 15.059-15.059h17.438c0 0 0 0 0.015 0v0h28.762c16.354 0 22.182-10.933 22.182-20.299 0-5.331-1.912-10.421-5.24-13.975-3.945-4.141-9.623-6.264-16.941-6.264v0h-32.708c-8.343 0-15.059-6.731-15.059-15.059 0-8.312 6.716-15.059 15.059-15.059h57.615c16.264 0 22.031-11.083 22.031-20.616 0-9.608-5.798-19.908-22.031-19.908h-45.493c-8.343 0-15.059-6.746-15.059-15.059s6.716-15.059 15.059-15.059h49.348c16.384 0 22.212-10.948 22.212-20.329-0.030-5.331-1.943-10.406-5.271-13.944z" />
<glyph unicode="&#xe91e;" glyph-name="121" d="M512 960c-282.323 0-512-229.677-512-512s229.677-512 512-512c282.308 0 512 229.677 512 512s-229.692 512-512 512zM789.655 372.028c-6.761-7.213-19.019-15.797-38.942-15.797h-156.040c32.708-90.293 13.824-152.651-16.625-181.85-17.89-17.182-40.343-23.025-57.193-14.908-7.123 3.448-23.356 14.592-20.646 44.213 5.858 63.518-53.579 127.172-87.326 157.907v-9.939c0-8.328-6.761-15.059-15.059-15.059h-135.499c-8.328 0-15.059 6.731-15.059 15.059v290.304c0 8.343 6.731 15.059 15.059 15.059h135.499c8.297 0 15.059-6.716 15.059-15.059v-16.113c114.568 33.295 239.39 35.509 269.658 35.509 3.735 0 6.024-0.030 6.671-0.030 38.761 0 56.139-22.377 56.139-44.559 0-7.213-2.108-14.547-5.692-21.323 22.618-7.093 34.545-27.302 34.545-47.541 0-8.644-2.078-16.926-5.963-24.2 7.846-3.208 13.523-7.861 17.378-12.032 8.599-9.291 13.357-21.64 13.357-34.756 0.030-11.836-4.036-23.763-12.002-32.994 10.586-9.713 16.008-23.567 16.008-37.331 0.030-13.116-4.713-25.359-13.327-34.56zM277.414 626.914h105.382v-260.201h-105.382v260.201zM750.743 426.888h-49.348c-8.328 0-15.059 6.716-15.074 15.059 0 8.328 6.716 15.059 15.059 15.059h45.493c16.248 0 22.031 10.285 22.031 19.923 0 9.502-5.752 20.6-22.031 20.6h-57.585c-8.328 0-15.059 6.746-15.059 15.059 0 8.343 6.731 15.059 15.059 15.059h32.678c7.349 0 13.026 2.123 16.941 6.264 3.328 3.569 5.24 8.659 5.24 13.99 0 9.352-5.798 20.299-22.182 20.299h-46.2c-8.328 0-15.059 6.731-15.059 15.059s6.731 15.059 15.059 15.059h17.438c15.059 0 22.106 11.023 22.106 18.447 0 3.539-1.431 6.49-4.216 8.779-4.412 3.659-12.152 5.662-22.046 5.662-1.521 0.015-149.64 1.943-276.104-36.728v-193.175c22.679-17.935 126.072-105.201 117.323-200.388-0.678-7.379 0.768-12.845 3.72-14.291 4.307-2.063 13.944 0.527 23.266 9.502 25.449 24.41 39.198 81.679 1.461 169.201-2.018 4.683-1.551 10.029 1.235 14.231 2.816 4.262 7.529 6.792 12.589 6.792h178.236c7.334 0 13.056 2.123 16.941 6.264 3.343 3.554 5.256 8.644 5.256 13.944-0.045 9.382-5.888 20.329-22.227 20.329z" />
<glyph unicode="&#xe91f;" glyph-name="124" d="M512 960c-282.323 0-512-229.677-512-512s229.677-512 512-512 512 229.677 512 512-229.677 512-512 512zM512-33.882c-265.728 0-481.882 216.169-481.882 481.882s216.154 481.882 481.882 481.882c265.728 0 481.882-216.169 481.882-481.882s-216.154-481.882-481.882-481.882zM377.404 657.288h-135.484c-8.312 0-15.059-6.746-15.059-15.059v-290.319c0-8.328 6.746-15.059 15.059-15.059h135.484c8.312 0 15.059 6.731 15.059 15.059v290.319c0 8.312-6.731 15.059-15.059 15.059zM823.266 477.199c0 18.778-10.647 38.46-30.765 46.712 3.915 7.288 5.963 15.601 5.963 24.26 0 20.239-11.942 40.463-34.56 47.556 3.584 6.776 5.707 14.095 5.707 21.323 0 12.559-5.361 23.913-15.149 32-10.089 8.312-23.853 12.544-40.704 12.544h-0.030c-6.52 0.060-161.551 2.168-294.656-40.96-7.906-2.56-12.243-11.053-9.683-18.959v-204.529c-1.732-5.888 0.12-12.408 5.316-16.294 1.19-0.888 117.865-89.208 109.794-176.941-2.741-29.591 13.493-40.764 20.631-44.183 5.030-2.409 10.541-3.584 16.354-3.584 13.493 0 28.296 6.475 40.84 18.507 30.434 29.199 49.288 91.558 16.595 181.85h156.055c19.938 0 32.181 8.584 38.912 15.797 8.629 9.171 13.387 21.474 13.387 34.56 0 13.794-5.406 27.648-16.008 37.346 7.77 8.945 12.002 20.585 12.002 32.994z" />
<glyph unicode="&#xe920;" glyph-name="125" d="M512 960c-282.323 0-512-229.662-512-511.985s229.677-512 512-512 512 229.677 512 512-229.677 511.985-512 511.985zM392.463 351.88c0-8.328-6.731-15.059-15.059-15.059h-135.484c-8.312 0-15.059 6.731-15.059 15.059v290.334c0 8.328 6.746 15.059 15.059 15.059h135.484c8.328 0 15.059-6.731 15.059-15.059v-290.334zM813.899 372.299c-6.746-7.213-18.989-15.797-38.912-15.797h-156.040c32.708-90.308 13.824-152.681-16.625-181.85-12.544-12.047-27.317-18.507-40.855-18.507-5.768 0-11.309 1.19-16.339 3.599-7.138 3.448-23.341 14.592-20.631 44.213 8.056 87.688-108.619 176.023-109.794 176.926-5.18 3.885-7.048 10.421-5.316 16.294v204.499c-2.56 7.906 1.762 16.414 9.683 18.974 133.15 43.113 288.181 41.035 294.686 40.96 16.851 0 30.615-4.216 40.704-12.544 9.758-8.072 15.179-19.441 15.179-32 0-7.228-2.153-14.547-5.707-21.308 22.618-7.108 34.53-27.302 34.53-47.571 0-8.659-2.093-16.956-5.963-24.245 20.134-8.267 30.78-27.934 30.78-46.728 0-12.393-4.247-24.034-12.047-32.994 10.601-9.713 16.008-23.552 16.008-37.331 0.030-13.161-4.728-25.404-13.342-34.59z" />
<glyph unicode="&#xe921;" glyph-name="128" d="M512 960c-282.323 0-512-229.798-512-512.271 0-282.458 229.677-512.286 512-512.286 282.308 0 512 229.828 512 512.286 0 282.473-229.692 512.271-512 512.271zM512-37.466c-267.535 0-485.165 217.66-485.165 485.21s217.645 485.21 485.165 485.21c267.505 0 485.165-217.675 485.165-485.21s-217.63-485.21-485.165-485.21zM547.765 641.747c-59.799 3.704-118.965-19.275-162.199-62.856-27.528-27.738-46.472-61.681-55.853-98.394h-27.151c-8.237 0-14.908-6.716-14.908-15.029 0-8.297 6.671-15.044 14.908-15.044h21.549c-0.648-6.099-1.129-12.243-1.25-18.492-0.181-8.99 0.422-17.86 1.37-26.639h-36.578c-8.237 0-14.908-6.686-14.908-15.029 0-8.282 6.671-15.029 14.908-15.029h42.059c8.794-33.355 25.901-63.774 50.598-88.666 38.295-38.611 88.892-57.856 140.137-57.856 53.715 0.030 108.198 21.112 149.85 63.127 5.798 5.873 5.798 15.375 0 21.248-5.858 5.888-15.3 5.888-21.082 0-69.768-70.34-180.932-72.719-247.823-5.331-18.974 19.14-32.602 42.18-40.538 67.433h228.382c8.222 0 14.908 6.746 14.908 15.029 0 8.312-6.686 15.029-14.908 15.029h-234.963c-1.084 8.538-1.762 17.227-1.581 26.037 0.12 6.415 0.678 12.77 1.431 19.049h250.022c8.222 0 14.908 6.746 14.908 15.044 0 8.312-6.686 15.029-14.908 15.029h-243.592c8.659 28.687 24.275 55.145 46.095 77.146 37.225 37.496 87.944 57.178 139.339 54.106 41.201-2.515 79.736-19.832 108.454-48.791 5.858-5.873 15.3-5.873 21.082 0 5.813 5.873 5.828 15.39 0 21.263-33.882 34.229-79.255 54.679-127.759 57.615z" />
<glyph unicode="&#xe922;" glyph-name="129" d="M512 960c-282.323 0-512-229.707-512-512.045 0-282.323 229.677-512.015 512-512.015s512 229.692 512 512.015c0 282.338-229.677 512.045-512 512.045zM675.524 563.14c-5.828-5.873-15.27-5.873-21.082 0-28.702 28.943-67.253 46.261-108.484 48.776-51.396 3.072-102.114-16.595-139.309-54.076-21.82-21.971-37.436-48.444-46.125-77.086h243.607c8.237 0 14.893-6.731 14.893-15.029 0-8.312-6.656-15.029-14.893-15.029h-250.007c-0.798-6.295-1.31-12.664-1.446-19.049-0.181-8.824 0.497-17.498 1.581-26.037h234.948c8.252 0 14.923-6.716 14.923-15.029 0-8.328-6.671-15.029-14.923-15.029h-228.397c7.981-25.239 21.609-48.264 40.553-67.403 66.891-67.388 178.025-64.979 247.823 5.331 5.828 5.858 15.27 5.858 21.037 0 5.873-5.903 5.873-15.39 0-21.248-41.653-41.999-96.075-63.096-149.805-63.096-51.23 0-101.828 19.17-140.152 57.796-24.666 24.847-41.758 55.296-50.568 88.651h-42.074c-8.222 0-14.908 6.686-14.908 15.029 0 8.297 6.686 15.029 14.908 15.029h36.593c-0.949 8.734-1.536 17.589-1.37 26.594 0.12 6.219 0.602 12.363 1.25 18.477h-21.564c-8.237 0-14.923 6.701-14.923 15.029 0 8.297 6.686 15.029 14.923 15.029h27.121c9.412 36.683 28.341 70.596 55.883 98.349 43.234 43.55 102.37 66.515 162.184 62.81 48.55-2.952 93.892-23.371 127.774-57.51 5.873-5.903 5.873-15.405 0.030-21.278z" />
<glyph unicode="&#xe923;" glyph-name="132" d="M512 960c-282.308 0-512-229.768-512-512.226 0-282.443 229.692-512.211 512-512.211s512 229.768 512 512.211c0 282.458-229.677 512.226-512 512.226zM512-37.376c-267.52 0-485.15 217.645-485.135 485.165 0 267.52 217.63 485.165 485.135 485.165 267.535 0 485.15-217.66 485.15-485.165 0-267.52-217.615-485.165-485.15-485.165z" />
<glyph unicode="&#xe924;" glyph-name="133" d="M512 960c-282.323 0-512-229.828-512-512.316 0-282.473 229.677-512.316 512-512.316s512 229.843 512 512.316c0 282.488-229.692 512.316-512 512.316zM512 243.531c-110.366 0-199.816 91.407-199.816 204.152 0 112.76 89.449 204.168 199.816 204.168 110.381 0 199.831-91.407 199.831-204.168 0-112.745-89.464-204.152-199.831-204.152z" />
<glyph unicode="&#xe925;" glyph-name="136" d="M511.985 960c-282.293 0-511.985-229.647-511.985-511.91 0-282.293 229.692-511.925 511.985-511.925 282.308 0.015 512.015 229.647 512.015 511.925 0 282.263-229.707 511.91-512.015 511.91zM511.985-36.789c-267.505 0-485.135 217.495-485.135 484.894 0 267.339 217.63 484.864 485.135 484.864 267.52 0 485.15-217.51 485.15-484.864 0-267.4-217.63-484.894-485.15-484.894zM531.456 448.090l72.478 73.035c5.843 5.888 5.843 15.36 0 21.248-5.858 5.873-15.27 5.873-21.052 0l-72.523-73.050-69.21 69.722c-5.843 5.873-15.27 5.873-21.097 0-5.828-5.843-5.828-15.375 0-21.248l69.24-69.707-69.24-69.737c-5.828-5.888-5.828-15.375 0-21.233 2.921-2.936 6.746-4.412 10.571-4.412 3.795 0 7.605 1.476 10.541 4.412l69.21 69.737 72.523-73.065c2.861-2.921 6.716-4.397 10.526-4.397s7.65 1.476 10.511 4.397c5.858 5.873 5.858 15.375 0 21.233l-72.478 73.065z" />
<glyph unicode="&#xe926;" glyph-name="137" d="M511.985 960c-282.293 0-511.985-229.737-511.985-512.12 0-282.413 229.692-512.151 511.985-512.151 282.323 0 512.015 229.737 512.015 512.151 0 282.383-229.692 512.12-512.015 512.12zM511.985 243.757c-110.366 0-199.831 91.392-199.831 204.122 0 112.715 89.464 204.077 199.831 204.077s199.846-91.362 199.846-204.077c0-112.7-89.48-204.122-199.846-204.122zM604.853 541.32c-5.918 5.888-15.375 5.888-21.293 0l-73.216-73.231-69.903 69.903c-5.903 5.903-15.42 5.903-21.308 0-5.888-5.873-5.888-15.39 0-21.293l69.918-69.888-69.918-69.933c-5.888-5.888-5.888-15.39 0-21.278 2.936-2.936 6.807-4.427 10.662-4.427 3.84 0 7.695 1.491 10.647 4.427l69.903 69.918 73.216-73.216c2.906-2.936 6.792-4.412 10.647-4.412s7.71 1.476 10.647 4.412c5.918 5.888 5.918 15.39 0 21.293l-73.231 73.231 73.231 73.231c5.918 5.858 5.918 15.375 0 21.263z" />
<glyph unicode="&#xe927;" glyph-name="140" d="M512 960c-282.323 0-512-229.798-512-512.256 0-282.473 229.677-512.271 512-512.271 282.308 0 512 229.798 512 512.271 0 282.458-229.692 512.256-512 512.256zM512-37.436c-267.535 0-485.165 217.6-485.165 485.18 0 267.535 217.645 485.21 485.165 485.21 267.505 0 485.12-217.675 485.12-485.21 0.015-267.58-217.585-485.18-485.12-485.18zM757.941 614.596c-11.475 4.713-24.501-0.904-29.154-12.469l-93.139-232.297-93.169 232.297c-4.623 11.565-17.679 17.167-29.124 12.469-1.506-0.617-2.891-1.37-4.156-2.244h-234.752c-12.348 0-22.362-10.089-22.362-22.543 0-12.469 10.014-22.558 22.362-22.558h95.413v-265.517c0-12.439 10.014-22.543 22.362-22.543s22.377 10.104 22.377 22.543v265.517h93.696l106.662-266.074c3.433-8.493 11.61-14.095 20.736-14.095s17.303 5.557 20.721 14.095l113.89 284.070c4.593 11.535-0.904 24.681-12.363 29.35z" />
<glyph unicode="&#xe928;" glyph-name="141" d="M512 960c-282.323 0-512-229.677-512-511.985 0-282.293 229.677-511.985 512-511.985 282.308 0 512 229.692 512 511.985 0 282.308-229.692 511.985-512 511.985zM770.319 585.457l-113.89-283.904c-3.403-8.508-11.61-14.11-20.736-14.11s-17.303 5.572-20.751 14.11l-106.662 265.909h-93.696v-265.382c0-12.439-10.014-22.528-22.362-22.528s-22.377 10.089-22.377 22.528v265.397h-95.398c-12.378 0-22.362 10.089-22.362 22.543 0 12.439 9.984 22.528 22.362 22.528h234.827c1.28 0.888 2.68 1.641 4.171 2.259 11.4 4.698 24.486-0.904 29.154-12.454l93.109-232.207 93.139 232.207c4.578 11.55 17.589 17.152 29.094 12.454 11.43-4.668 17.001-17.815 12.378-29.35z" />
<glyph unicode="&#xe929;" glyph-name="144" d="M512 960c-282.323 0-512-229.647-512-511.91s229.677-511.91 512-511.91c282.293 0 512 229.647 512 511.91s-229.707 511.91-512 511.91zM512-36.759c-267.535 0-485.15 217.48-485.15 484.849 0 267.354 217.615 484.879 485.15 484.879s485.135-217.51 485.135-484.879-217.6-484.849-485.135-484.849zM615.514 551.273c-6.596 7.439-17.363 7.439-23.989 0l-67.976-76.258-67.991 76.258c-6.611 7.439-17.363 7.439-23.974 0-6.641-7.439-6.641-19.486 0-26.925l67.945-76.273-67.945-76.243c-6.641-7.424-6.641-19.501 0-26.91 6.611-7.424 17.363-7.424 23.974 0l67.991 76.258 67.976-76.258c6.596-7.424 17.378-7.424 23.989 0 6.596 7.409 6.596 19.486 0 26.91l-67.991 76.243 67.991 76.273c6.611 7.439 6.611 19.486 0 26.925zM711.499 680.915h-346.579c-14.306 0-27.994-6.807-37.572-18.643l-112.008-175.872c-17.679-21.835-17.679-54.769 0-76.619l111.992-175.857c9.592-11.866 23.281-18.658 37.587-18.658h346.579c27.964 0 50.748 25.57 50.748 56.968v351.729c0 31.413-22.784 56.952-50.748 56.952zM730.353 272.233c0-11.671-8.478-21.143-18.854-21.143h-346.579c-5.331 0-10.406 2.515-13.975 6.927l-111.992 175.842c-6.581 8.162-6.581 20.39 0 28.491l112.008 175.872c3.554 4.397 8.629 6.912 13.96 6.912h346.579c10.376 0 18.854-9.487 18.854-21.143v-351.759z" />
<glyph unicode="&#xe92a;" glyph-name="145" d="M711.499 645.075h-346.594c-5.316 0-10.376-2.53-13.929-6.927l-112.023-175.887c-6.551-8.102-6.551-20.36 0.030-28.461l111.992-175.872c3.554-4.412 8.644-6.912 13.929-6.912h346.594c10.36 0 18.854 9.472 18.854 21.143v351.759c0 11.656-8.463 21.158-18.854 21.158zM615.529 371.757c6.611-7.439 6.611-19.471 0-26.91-6.596-7.439-17.378-7.439-24.004 0l-67.976 76.243-67.976-76.243c-6.596-7.439-17.348-7.439-23.974 0s-6.626 19.471 0 26.91l67.945 76.258-67.945 76.288c-6.626 7.424-6.626 19.471 0 26.91 6.611 7.439 17.363 7.439 23.974 0l67.976-76.288 67.976 76.288c6.611 7.439 17.378 7.439 24.004 0s6.611-19.486 0-26.91l-68.006-76.288 68.006-76.258zM511.985 960c-282.293 0-511.985-229.662-511.985-511.97s229.692-511.97 511.985-511.97c282.323 0 512.015 229.662 512.015 511.97s-229.692 511.97-512.015 511.97zM711.499 215.176h-346.594c-14.276 0-27.979 6.792-37.557 18.673l-112.008 175.872c-17.694 21.85-17.694 54.784-0.015 76.634l112.008 175.887c9.577 11.836 23.266 18.643 37.557 18.643h346.594c27.979 0 50.778-25.555 50.778-56.968v-351.759h0.015c0-31.428-22.784-56.983-50.778-56.983z" />
<glyph unicode="&#xe92b;" glyph-name="148" d="M512 960c-282.308 0-512-229.737-512-512.166 0-282.368 229.692-512.105 512-512.105 282.293 0 512 229.737 512 512.12 0 282.413-229.707 512.151-512 512.151zM512-37.24c-267.505 0-485.165 217.615-485.165 485.090 0 267.49 217.66 485.105 485.165 485.105 267.535 0 485.165-217.615 485.165-485.105 0-267.46-217.63-485.090-485.165-485.090zM667.829 735.322h-311.657c-29.184 0-52.917-23.928-52.917-53.338v-473.72c0-29.41 23.733-53.338 52.917-53.338h311.657c29.184 0 52.947 23.928 52.947 53.338v473.72c-0.045 29.41-23.793 53.338-52.947 53.338zM690.929 208.264c0-12.86-10.36-23.281-23.1-23.281h-311.657c-12.74 0-23.085 10.421-23.085 23.281v473.72c0 12.845 10.36 23.281 23.085 23.281h311.657c12.74 0 23.1-10.451 23.1-23.281v-473.72zM512 268.484c12.589 0 22.799-10.285 22.799-22.98s-10.21-22.965-22.799-22.965-22.799 10.285-22.799 22.965c0 12.695 10.21 22.98 22.799 22.98z" />
<glyph unicode="&#xe92c;" glyph-name="149" d="M667.377 705.672h-312.019c-12.755 0-23.145-10.466-23.145-23.296v-473.931c0-12.83 10.376-23.281 23.145-23.281h312.019c12.77 0 23.115 10.451 23.115 23.281v473.931c0.015 12.83-10.345 23.296-23.115 23.296zM511.368 222.72c-12.604 0-22.829 10.285-22.829 22.95 0 12.725 10.21 22.98 22.829 22.98 12.589 0 22.844-10.285 22.844-22.98 0-12.664-10.255-22.95-22.844-22.95zM511.368 960.482c-282.654 0-512.632-229.828-512.632-512.331 0-282.488 229.978-512.346 512.632-512.346 282.669-0.015 512.632 229.843 512.632 512.331 0 282.519-229.963 512.346-512.632 512.346zM720.384 208.444c0-29.41-23.793-53.338-53.022-53.338h-312.019c-29.229 0-52.992 23.928-52.992 53.338v473.916c0 29.425 23.763 53.338 52.992 53.338h312.004c29.214 0 53.022-23.928 53.022-53.338v-473.916z" />
<glyph unicode="&#xe92d;" glyph-name="152" d="M512 960c-282.308 0-512-229.587-512-511.789 0-282.217 229.692-511.804 512-511.804s512 229.587 512 511.804c0 282.202-229.692 511.789-512 511.789zM512-36.548c-267.535 0-485.165 217.449-485.165 484.759 0 267.294 217.63 484.759 485.165 484.759s485.165-217.464 485.165-484.759c0-267.294-217.63-484.759-485.165-484.759zM608.181 705.446h-192.361c-29.184 0-52.947-23.913-52.947-53.308v-383.292c0-29.41 23.763-53.293 52.947-53.293h192.331c29.184 0 52.917 23.883 52.917 53.293v383.292c-0.015 29.395-23.718 53.308-52.887 53.308zM608.181 245.594h-192.361c-12.74 0-23.115 10.436-23.115 23.266v383.277c0 12.83 10.36 23.266 23.115 23.266h192.331c12.74 0 23.1-10.436 23.1-23.266v-383.292h0.015c0-12.815-10.36-23.251-23.085-23.251zM512 329.005c12.604 0 22.829-10.285 22.829-22.935 0-12.68-10.225-22.935-22.829-22.935s-22.814 10.27-22.814 22.935c0 12.649 10.21 22.935 22.814 22.935zM576.919 649.171h-129.837c-8.222 0-14.908-6.731-14.908-15.029 0-8.282 6.686-15.014 14.908-15.014h129.837c8.237 0 14.893 6.731 14.893 15.014 0 8.312-6.701 15.029-14.893 15.029z" />
<glyph unicode="&#xe92e;" glyph-name="153" d="M608.181 675.448h-192.346c-12.74 0-23.115-10.436-23.115-23.251v-383.292c0-12.815 10.376-23.236 23.115-23.236h192.316c12.77 0 23.1 10.421 23.1 23.236v383.277c0.015 12.815-10.345 23.266-23.070 23.266zM512 283.181c-12.574 0-22.799 10.27-22.799 22.92 0 12.695 10.21 22.95 22.799 22.95 12.604 0 22.829-10.285 22.829-22.95 0-12.695-10.225-22.92-22.829-22.92zM576.919 619.174h-129.837c-8.222 0-14.908 6.731-14.908 15.014s6.686 15.029 14.908 15.029h129.837c8.267 0 14.893-6.731 14.893-15.029 0-8.282-6.671-15.014-14.893-15.014zM512 960c-282.323 0-512-229.572-512-511.744s229.677-511.729 512-511.729 512 229.557 512 511.729-229.692 511.744-512 511.744zM661.082 268.905c0-29.38-23.733-53.293-52.947-53.293h-192.301c-29.184 0-52.947 23.913-52.947 53.293v383.262c0 29.395 23.763 53.293 52.947 53.293h192.316c29.184 0 52.947-23.898 52.947-53.293v-383.262z" />
<glyph unicode="&#xe92f;" glyph-name="200" d="M512 960c-282.323 0-512-229.692-512-512.030 0-282.323 229.677-512.030 512-512.030 282.338 0 512 229.707 512 512.030 0 282.338-229.677 512.030-512 512.030zM512-37c-267.52 0-485.15 217.555-485.15 484.969s217.63 484.984 485.15 484.984c267.535 0 485.165-217.57 485.165-484.984s-217.63-484.969-485.165-484.969zM675.659 702.163h-57.901c-2.831 38.505-34.786 68.984-73.728 68.984h-58.443c-38.942 0-70.852-30.479-73.683-68.984h-63.593c-40.764 0-73.954-33.416-73.954-74.511v-86.167h34.349v-293.933c0-41.096 33.175-74.481 73.954-74.481h258.65c40.794 0 73.954 33.431 73.954 74.481v293.948h34.319v86.167c0 41.080-33.16 74.496-73.924 74.496zM485.632 741.903h58.443c22.904 0 41.638-17.393 44.363-39.74h-147.17c2.741 22.347 21.474 39.74 44.363 39.74zM686.261 247.552h-0.030c0-24.922-20.149-45.237-44.905-45.237h-258.65c-24.772 0-44.92 20.314-44.92 45.237v293.948h348.506v-293.948zM715.279 570.744h-411.859v56.907c0 24.952 20.134 45.252 44.905 45.252h327.319c24.772 0 44.905-20.299 44.905-45.252v-56.907h-5.271zM434.568 253.38c8.026 0 14.532 5.813 14.532 12.936v211.17c0 7.153-6.52 12.951-14.532 12.951s-14.517-5.798-14.517-12.951v-211.155c0-7.138 6.505-12.951 14.517-12.951zM512 253.38c8.026 0 14.502 5.813 14.502 12.936v211.17c0 7.153-6.475 12.951-14.502 12.951s-14.532-5.798-14.532-12.951v-211.155c0-7.138 6.505-12.951 14.532-12.951zM589.448 253.38c8.011 0 14.532 5.813 14.532 12.936v211.17c0 7.153-6.52 12.951-14.532 12.951-8.026 0-14.532-5.798-14.532-12.951v-211.155c0-7.138 6.46-12.951 14.532-12.951z" />
<glyph unicode="&#xe930;" glyph-name="201" d="M337.754 247.236c0-24.952 20.134-45.267 44.92-45.267h258.65c24.772 0 44.905 20.314 44.905 45.267v294.069h-348.476v-294.069zM574.916 477.244c0 7.168 6.505 12.966 14.532 12.966 7.996 0 14.502-5.813 14.502-12.966v-211.215c0-7.183-6.505-12.966-14.502-12.966-8.026 0-14.532 5.828-14.532 12.966v211.215zM497.483 477.244c0 7.168 6.49 12.966 14.517 12.966 8.011 0 14.517-5.813 14.517-12.966v-211.215c0-7.183-6.52-12.966-14.517-12.966-8.026 0-14.517 5.828-14.517 12.966v211.215zM420.051 477.244c0 7.168 6.52 12.966 14.547 12.966 7.996 0 14.502-5.813 14.502-12.966v-211.215c0-7.183-6.505-12.966-14.502-12.966-8.026 0-14.547 5.828-14.547 12.966v211.215zM675.644 672.798h-327.304c-24.772 0-44.905-20.314-44.905-45.282v-56.937h417.129v56.922c0 24.983-20.149 45.297-44.92 45.297zM544.075 741.798h-58.443c-22.904 0-41.623-17.408-44.378-39.74h147.185c-2.726 22.332-21.474 39.74-44.363 39.74zM511.985 960c-282.308 0-511.985-229.798-511.985-512.271 0-282.458 229.677-512.271 511.985-512.271 282.323 0.015 512.015 229.813 512.015 512.271 0 282.473-229.692 512.271-512.015 512.271zM749.613 541.304h-34.334v-294.069c0-41.096-33.175-74.526-73.954-74.526h-258.665c-40.764 0-73.954 33.446-73.954 74.526v294.069h-34.304v86.197c0 41.111 33.19 74.541 73.954 74.541h63.593c2.846 38.52 34.756 69.015 73.698 69.015h58.443c38.942 0 70.852-30.494 73.683-69.015h57.916c40.779 0 73.939-33.416 73.939-74.541v-86.197z" />
<glyph unicode="&#xe931;" glyph-name="204" d="M512 960c-282.323 0-512-229.692-512-512.030 0-282.323 229.677-512.030 512-512.030 282.293 0 512 229.707 512 512.030 0 282.338-229.707 512.030-512 512.030zM512-37c-267.535 0-485.165 217.555-485.165 484.969s217.63 484.984 485.165 484.984c267.505 0 485.165-217.57 485.165-484.984 0.015-267.415-217.66-484.969-485.165-484.969zM734.795 666.353h-445.666c-28.311 0-50.507-23.386-50.507-53.203v-330.18c0-29.937 22.197-53.384 50.507-53.384h445.666c27.889 0 50.583 23.944 50.583 53.384v330.18c0 29.832-22.197 53.203-50.583 53.203zM757.624 282.97c0-14.231-10.029-25.389-22.829-25.389h-445.666c-12.74 0-22.739 11.144-22.739 25.389v330.18c0 14.14 9.999 25.224 22.739 25.224h445.666c12.8 0 22.829-11.083 22.829-25.224v-330.18zM713.848 429.342h-130.906c-13.478 0-24.425-11.008-24.425-24.591v-104.568c0-13.538 10.963-24.576 24.425-24.576h130.906c13.478 0 24.38 10.993 24.38 24.576v104.568c0 13.538-10.903 24.591-24.38 24.591zM710.505 303.571h-124.205v97.777h124.205v-97.777z" />
<glyph unicode="&#xe932;" glyph-name="205" d="M734.81 638.404h-445.681c-12.755 0-22.754-11.053-22.754-25.208v-330.165c0-14.231 9.999-25.419 22.754-25.419h445.681c12.785 0 22.814 11.144 22.814 25.419v330.165c0 14.155-10.029 25.208-22.814 25.208zM738.229 300.228c0-13.538-10.948-24.591-24.41-24.591h-130.906c-13.448 0-24.395 11.023-24.395 24.591v104.553c0 13.553 10.963 24.561 24.395 24.561h130.906c13.493 0 24.41-10.978 24.41-24.561v-104.553zM586.3 401.408h124.175v-97.807h-124.175v97.807zM512 960c-282.323 0-512-229.662-512-511.97 0-282.293 229.677-511.985 512-511.985 282.308 0 512 229.692 512 511.985 0 282.308-229.692 511.97-512 511.97zM785.378 283.046c0-29.425-22.709-53.368-50.583-53.368h-445.666c-28.311 0-50.507 23.447-50.507 53.368v330.135c0 29.832 22.197 53.203 50.507 53.203h445.666c28.386 0 50.583-23.371 50.583-53.203v-330.135z" />
<glyph unicode="&#xe933;" glyph-name="208" d="M512 960c-278.4 0-505.6-230.4-505.6-512s227.2-512 505.6-512c278.4 0 505.6 230.4 505.6 512s-227.2 512-505.6 512zM512-35.2c-262.4 0-473.6 217.6-473.6 483.2s211.2 483.2 473.6 483.2c262.4 0 473.6-217.6 473.6-483.2s-211.2-483.2-473.6-483.2zM675.2 659.2c-6.4 6.4-16 3.2-19.2-3.2l-48-64c-25.6 9.6-54.4 12.8-80 12.8-128 0-224-102.4-224-144 0-32 48-92.8 115.2-124.8l-38.4-48c-6.4-6.4-3.2-16 3.2-19.2 3.2-3.2 6.4-3.2 9.6-3.2s9.6 3.2 12.8 6.4l272 368c6.4 6.4 6.4 16-3.2 19.2zM332.8 460.8c0 22.4 76.8 115.2 192 115.2 22.4 0 41.6-3.2 64-9.6l-32-44.8c-9.6 3.2-19.2 6.4-32 6.4-38.4 0-70.4-32-70.4-70.4 0-19.2 6.4-35.2 19.2-48l-35.2-48c-67.2 32-105.6 83.2-105.6 99.2zM492.8 435.2c-3.2 6.4-6.4 16-6.4 22.4 0 22.4 19.2 41.6 41.6 41.6 3.2 0 9.6 0 12.8-3.2l-48-60.8zM672 560c-6.4 3.2-16 3.2-19.2-3.2s-3.2-16 3.2-19.2c44.8-28.8 64-64 64-73.6 0-25.6-83.2-121.6-192-121.6-6.4 0-12.8 0-19.2 0-9.6 0-16-6.4-16-12.8 0-9.6 6.4-16 12.8-16s12.8 0 22.4 0c124.8 0 224 105.6 224 150.4-3.2 25.6-35.2 67.2-80 96z" />
<glyph unicode="&#xe934;" glyph-name="209" d="M528 502.4c-22.4 0-38.4-16-38.4-38.4 0-6.4 3.2-16 6.4-22.4l41.6 57.6c-3.2 3.2-6.4 3.2-9.6 3.2zM460.8 464c0 35.2 28.8 67.2 67.2 67.2 9.6 0 19.2-3.2 28.8-6.4l28.8 38.4c-19.2 6.4-38.4 9.6-57.6 9.6-105.6 0-176-86.4-176-105.6 0-16 35.2-64 96-92.8l32 44.8c-12.8 12.8-19.2 28.8-19.2 44.8zM518.4 960h-12.8c-278.4 0-505.6-227.2-505.6-505.6v-12.8c0-278.4 227.2-505.6 505.6-505.6h12.8c278.4 0 505.6 227.2 505.6 505.6v12.8c0 278.4-227.2 505.6-505.6 505.6zM403.2 284.8c-3.2 0-6.4 0-9.6 3.2-6.4 3.2-6.4 12.8-3.2 19.2l35.2 44.8c-60.8 28.8-105.6 83.2-105.6 115.2 0 38.4 86.4 131.2 204.8 131.2 25.6 0 51.2-3.2 73.6-12.8l44.8 60.8c3.2 6.4 12.8 6.4 19.2 3.2s6.4-12.8 3.2-19.2l-249.6-339.2c-3.2-3.2-6.4-6.4-12.8-6.4zM528 329.6c-6.4 0-12.8 0-19.2 0s-12.8 6.4-12.8 16c0 6.4 6.4 12.8 16 12.8 6.4 0 12.8 0 16 0 102.4 0 176 86.4 176 112 0 9.6-19.2 41.6-60.8 67.2-6.4 3.2-6.4 12.8-3.2 19.2s12.8 6.4 19.2 3.2c41.6-28.8 70.4-67.2 70.4-89.6 3.2-44.8-86.4-140.8-201.6-140.8z" />
<glyph unicode="&#xe935;" glyph-name="212" d="M512 960c-282.323 0-512-229.692-512-512 0-282.323 229.677-512 512-512s512 229.677 512 512c0 282.308-229.677 512-512 512zM512-33.882c-265.713 0-481.882 216.154-481.882 481.882 0 265.713 216.169 481.882 481.882 481.882s481.882-216.169 481.882-481.882c0-265.728-216.169-481.882-481.882-481.882zM376.471 583.529c-8.328 0-15.059-6.746-15.059-15.059v-271.059c0-8.328 6.731-15.059 15.059-15.059s15.059 6.731 15.059 15.059v271.059c0 8.312-6.731 15.059-15.059 15.059zM656.008 576.934c-6.054 0-12.002-1.837-17.001-5.271l-173.116-118.453c-13.719-9.382-17.242-28.13-7.846-41.864 2.168-3.147 4.894-5.903 8.072-7.996l173.101-116.179c13.824-9.261 32.512-5.572 41.773 8.237 3.328 4.939 5.12 10.797 5.12 16.76v234.647c0.015 16.625-13.478 30.118-30.103 30.118z" />
<glyph unicode="&#xe936;" glyph-name="213" d="M512 960c-282.323 0-512-229.677-512-512s229.677-512 512-512 512 229.677 512 512-229.677 512-512 512zM391.529 297.412c0-8.328-6.731-15.059-15.059-15.059s-15.059 6.731-15.059 15.059v271.059c0 8.312 6.731 15.059 15.059 15.059s15.059-6.746 15.059-15.059v-271.059zM686.14 312.169h-0.030c0-5.963-1.792-11.821-5.12-16.791-9.261-13.809-27.949-17.483-41.773-8.237l-173.086 116.194c-3.177 2.138-5.918 4.834-8.072 7.981-9.397 13.734-5.903 32.482 7.846 41.879l173.101 118.453c5 3.433 10.948 5.271 17.032 5.271 16.625 0 30.118-13.493 30.118-30.118v-234.632z" />
<glyph unicode="&#xe937;" glyph-name="216" d="M512 960c-282.323 0-512-229.692-512-512 0-282.323 229.677-512 512-512s512 229.677 512 512c0 282.308-229.677 512-512 512zM512-33.882c-265.713 0-481.882 216.154-481.882 481.882 0 265.713 216.169 481.882 481.882 481.882s481.882-216.169 481.882-481.882c0-265.728-216.169-481.882-481.882-481.882zM647.529 583.529c-8.328 0-15.059-6.746-15.059-15.059v-271.059c0-8.328 6.731-15.059 15.059-15.059s15.059 6.731 15.059 15.059v271.059c0 8.312-6.731 15.059-15.059 15.059zM558.125 453.21l-173.116 118.453c-5 3.433-10.933 5.271-17.001 5.271-16.64 0-30.118-13.493-30.118-30.118v-234.647c0-5.963 1.777-11.821 5.105-16.791 9.276-13.809 27.979-17.483 41.788-8.237l173.101 116.194c3.177 2.138 5.918 4.834 8.072 7.981 9.397 13.779 5.873 32.497-7.831 41.894z" />
<glyph unicode="&#xe938;" glyph-name="217" d="M512 960c-282.323 0-512-229.677-512-512 0-282.308 229.677-512 512-512s512 229.692 512 512c0 282.323-229.677 512-512 512zM565.971 411.347c-2.184-3.147-4.894-5.888-8.072-7.996l-173.086-116.179c-13.824-9.261-32.527-5.572-41.803 8.237-3.328 4.939-5.105 10.797-5.105 16.76v234.647h-0.015c0 16.625 13.478 30.118 30.118 30.118 6.069 0 12.002-1.837 17.001-5.271l173.116-118.468c13.734-9.382 17.242-28.1 7.846-41.848zM662.588 297.412c0-8.312-6.731-15.059-15.059-15.059s-15.059 6.746-15.059 15.059v271.059c0 8.328 6.731 15.059 15.059 15.059s15.059-6.731 15.059-15.059v-271.059z" />
<glyph unicode="&#xe939;" glyph-name="220" d="M512 960c-282.323 0-512-229.692-512-512 0-282.323 229.677-512 512-512s512 229.677 512 512c0 282.308-229.677 512-512 512zM512-33.882c-265.728 0-481.882 216.154-481.882 481.882 0 265.713 216.154 481.882 481.882 481.882 265.713 0 481.882-216.169 481.882-481.882 0-265.728-216.169-481.882-481.882-481.882zM710.927 463.255l-273.86 163.403c-4.653 2.771-9.999 4.232-15.42 4.232-16.64 0-30.118-13.478-30.118-30.118v-323.629c0-5.346 1.416-10.601 4.111-15.24 8.403-14.351 26.85-19.155 41.216-10.797l273.86 160.271c4.382 2.59 8.056 6.204 10.647 10.556 8.523 14.306 3.84 32.798-10.436 41.321z" />
<glyph unicode="&#xe93a;" glyph-name="221" d="M512 960c-282.323 0-512-229.692-512-512 0-282.323 229.677-512 512-512s512 229.677 512 512c0 282.308-229.677 512-512 512zM721.348 421.963c-2.59-4.382-6.264-7.981-10.647-10.586l-273.845-160.226c-14.351-8.403-32.798-3.554-41.201 10.797-2.711 4.608-4.126 9.848-4.126 15.164v323.674c0 16.64 13.478 30.118 30.118 30.118 5.436 0 10.767-1.461 15.435-4.247l273.845-163.403c14.276-8.523 18.959-27.016 10.421-41.291z" />
<glyph unicode="&#xe93b;" glyph-name="224" d="M512 960c-282.323 0-512-229.677-512-512s229.677-512 512-512 512 229.677 512 512-229.677 512-512 512zM512-33.882c-265.713 0-481.882 216.169-481.882 481.882 0 265.728 216.169 481.882 481.882 481.882s481.882-216.154 481.882-481.882c0-265.713-216.169-481.882-481.882-481.882zM431.691 636.235c-24.952 0-45.176-20.224-45.176-45.176v-286.118c0-24.937 20.224-45.176 45.176-45.176s45.176 20.239 45.176 45.176v286.118c0 24.952-20.224 45.176-45.176 45.176zM592.324 636.235c-24.968 0-45.176-20.224-45.176-45.176v-286.118c0-24.937 20.209-45.176 45.176-45.176 24.937 0 45.176 20.239 45.176 45.176v286.118c0 24.952-20.239 45.176-45.176 45.176z" />
<glyph unicode="&#xe93c;" glyph-name="225" d="M512 960c-282.323 0-512-229.677-512-512 0-282.308 229.677-512 512-512s512 229.692 512 512c0 282.323-229.677 512-512 512zM476.853 304.941c0-24.937-20.224-45.176-45.176-45.176-24.937 0-45.176 20.239-45.176 45.176v286.118c0 24.952 20.239 45.176 45.176 45.176 24.952 0 45.176-20.224 45.176-45.176v-286.118zM637.5 304.941c0-24.937-20.239-45.176-45.176-45.176-24.968 0-45.176 20.239-45.176 45.176v286.118c0 24.952 20.209 45.176 45.176 45.176 24.937 0 45.176-20.224 45.176-45.176v-286.118z" />
<glyph unicode="&#xe93d;" glyph-name="228" d="M512 960c-282.338 0-512-229.692-512-512 0-282.323 229.677-512 512-512 282.338 0 512 229.677 512 512 0 282.308-229.677 512-512 512zM512-33.882c-265.728 0-481.882 216.154-481.882 481.882 0 265.713 216.154 481.882 481.882 481.882s481.882-216.169 481.882-481.882c0-265.728-216.169-481.882-481.882-481.882zM431.977 568.471c-6.069 0-12.002-1.837-17.001-5.271l-130.801-89.525c-13.734-9.397-17.242-28.115-7.846-41.848 2.153-3.147 4.894-5.888 8.056-7.996l130.801-87.793c13.824-9.246 32.527-5.587 41.803 8.237 3.328 4.969 5.105 10.812 5.105 16.791v177.288c0 16.625-13.493 30.118-30.118 30.118zM703.036 568.471c-6.039 0-12.002-1.837-17.001-5.271l-130.801-89.525c-13.734-9.397-17.257-28.115-7.846-41.848 2.168-3.147 4.879-5.888 8.056-7.996l130.801-87.793c13.824-9.246 32.527-5.587 41.818 8.237 3.328 4.969 5.090 10.812 5.090 16.791v177.288c0 16.625-13.508 30.118-30.118 30.118z" />
<glyph unicode="&#xe93e;" glyph-name="229" d="M512 960c-282.338 0-512-229.692-512-512 0-282.323 229.677-512 512-512 282.338 0 512 229.677 512 512 0 282.308-229.677 512-512 512zM462.095 361.065c0-5.963-1.777-11.821-5.105-16.791-9.276-13.824-27.994-17.468-41.803-8.237l-130.801 87.793c-3.162 2.153-5.903 4.849-8.072 7.996-9.382 13.734-5.873 32.467 7.846 41.864l130.801 89.495c5.015 3.448 10.948 5.286 17.016 5.286 16.625 0 30.118-13.493 30.118-30.118v-177.288zM733.154 361.065c0-5.963-1.762-11.821-5.090-16.791-9.291-13.824-27.994-17.468-41.818-8.237l-130.801 87.793c-3.162 2.153-5.918 4.849-8.056 7.996-9.382 13.734-5.888 32.467 7.846 41.864l130.816 89.495c4.984 3.448 10.918 5.286 16.986 5.286 16.625 0 30.118-13.493 30.118-30.118v-177.288z" />
<glyph unicode="&#xe93f;" glyph-name="232" d="M512 945.371c-274.256 0-497.371-223.115-497.371-497.371s223.115-497.371 497.371-497.371c274.242 0 497.371 223.115 497.371 497.371s-223.13 497.371-497.371 497.371zM512-20.114c-258.136 0-468.114 209.993-468.114 468.114 0 258.136 209.979 468.114 468.114 468.114 258.121 0 468.114-209.979 468.114-468.114 0-258.121-209.993-468.114-468.114-468.114zM733.316 472.971l-127.093 86.938c-4.857 3.35-10.62 5.135-16.516 5.135-16.15 0-29.257-13.107-29.257-29.257v-172.237c0-5.793 1.741-11.483 4.974-16.311 8.997-13.4 27.165-16.955 40.58-7.973l127.078 85.285c3.101 2.077 5.764 4.681 7.826 7.753 9.143 13.341 5.749 31.539-7.592 40.667zM470.001 472.971l-127.078 86.938c-4.857 3.35-10.62 5.135-16.516 5.135-16.15 0-29.257-13.107-29.257-29.257v-172.237c0-5.793 1.726-11.483 4.974-16.311 8.997-13.4 27.165-16.955 40.58-7.973l127.078 85.285c3.087 2.077 5.749 4.681 7.826 7.753 9.143 13.341 5.734 31.539-7.607 40.667z" />
<glyph unicode="&#xe940;" glyph-name="233" d="M512 960c-282.323 0-512-229.707-512-512 0-282.323 229.677-512 512-512s512 229.677 512 512c0 282.293-229.677 512-512 512zM476.627 431.827c-2.168-3.147-4.909-5.888-8.072-7.996l-130.801-87.793c-13.809-9.246-32.527-5.587-41.803 8.237-3.328 4.969-5.105 10.812-5.105 16.791v177.288c0 16.625 13.493 30.118 30.118 30.118 6.069 0 12.002-1.837 17.016-5.271l130.801-89.525c13.719-9.382 17.227-28.115 7.846-41.848zM747.701 431.827c-2.184-3.147-4.909-5.888-8.072-7.996l-130.816-87.793c-13.824-9.246-32.527-5.587-41.788 8.237-3.328 4.969-5.12 10.812-5.12 16.791v177.288c0 16.625 13.493 30.118 30.118 30.118 6.039 0 12.002-1.837 17.001-5.271l130.831-89.525c13.704-9.382 17.227-28.115 7.846-41.848z" />
<glyph unicode="&#xe941;" glyph-name="300" d="M512 960c-282.323 0-512-229.677-512-512s229.677-512 512-512 512 229.677 512 512-229.677 512-512 512zM512-33.882c-265.713 0-481.882 216.154-481.882 481.882 0 265.713 216.169 481.882 481.882 481.882 265.728 0 481.882-216.169 481.882-481.882 0-265.728-216.154-481.882-481.882-481.882zM451.765 327.695c-0.602-40.659 28.913-74.827 66.711-75.445 37.948-0.602 68.216 32.512 68.819 73.186l0.151 15.059-135.529 2.379-0.151-15.179zM554.767 310.965c-5.557-17.182-19.742-28.913-35.689-28.597-16.113 0.316-29.967 12.484-35.087 29.801l70.776-1.205zM653.854 525.704c0 65.205-60.235 118.061-134.325 118.061s-134.325-52.856-134.325-118.061v-75.445l-53.911-92.612h376.471l-53.911 92.612v75.445zM655.375 387.765h-271.676l31.624 54.377v83.561c0 47.586 45.929 87.944 104.207 87.944s104.207-40.358 104.207-87.944v-83.561l31.639-54.377z" />
<glyph unicode="&#xe942;" glyph-name="301" d="M519.078 282.353c15.947-0.301 30.118 11.445 35.689 28.612l-70.776 1.205c5.12-17.318 18.974-29.5 35.087-29.816zM623.736 525.704c0 47.586-45.929 87.944-104.207 87.944s-104.207-40.358-104.207-87.944v-83.561l-31.624-54.377h271.691l-31.654 54.377v83.561zM512 960c-282.323 0-512-229.692-512-512 0-282.323 229.677-512 512-512s512 229.677 512 512c0 282.308-229.677 512-512 512zM587.294 325.436c-0.602-40.674-30.886-73.803-68.819-73.201-37.798 0.617-67.313 34.801-66.711 75.445l0.151 15.209 135.529-2.379-0.151-15.074zM331.294 357.647l53.911 92.597v75.46c0 65.205 60.235 118.061 134.325 118.061s134.325-52.856 134.325-118.061v-75.46l53.911-92.597h-376.471z" />
<glyph unicode="&#xe943;" glyph-name="304" d="M512 960c-282.3 0-512-229.7-512-512s229.7-512 512-512 512 229.7 512 512c0 282.3-229.7 512-512 512zM512-33.9c-265.7 0-481.9 216.2-481.9 481.9s216.2 481.9 481.9 481.9 481.9-216.2 481.9-481.9c0-265.7-216.2-481.9-481.9-481.9v0zM439.8 202.7c-25.4 0-43.3 7.4-53.1 22.1-17.8 26.6-1.6 65.6 8.1 89l1 2.4c10.4 25.2 36.2 88.1 50.2 127.3l1.5 4.1c1.3 3.6 2.7 7.5 3.9 11-3-1.4-6.7-3.2-11.3-5.5-38-19.4-44.9-24-46.1-24.9l-20 19.4c48.9 60.8 99.9 91.6 151.6 91.6 22.4 0 38.4-7.2 47.6-21.5 14.2-22.1 9.5-57.2-14.8-110.3l-51-118.1c1.8 0.9 4 2.1 6.6 3.5 23.7 13.5 33.5 22.7 37.6 28.1 1.1 2 2.2 4 3.3 6.1l25.5-11.4c-1.1-3.1-2.8-6.3-5-9.4-38.6-68.8-84.1-103.5-135.6-103.5zM463.9 491.2c4.8 0 9-1.4 12.7-4.6 11.1-9.7 5.9-24.4-2.8-48.5l-1.5-4.1c-14.2-39.8-40.2-103.2-50.7-128.6l-1-2.4c-6.5-15.7-20.1-48.5-10.7-62.6 5.3-8 19.1-9.7 29.8-9.7 22.6 0 44.2 9.3 64.6 27.7-7.6-1.6-14.7-0.9-20.6 4.1-12.5 10.6-5.6 29.2-3 36.3l51.8 120c25.5 55.9 21.5 76.5 16.8 83.8-3.7 5.7-11.7 8.6-24 8.6-21.2 0-42.6-6.7-64.1-20 1 0 1.8 0 2.7 0zM552.8 558.1c-38.6 0-70.1 31.4-70.1 70.1s31.4 70.1 70.1 70.1c38.6 0 70.1-31.4 70.1-70.1s-31.4-70.1-70.1-70.1zM552.8 670.3c-23.2 0-42.1-18.9-42.1-42.1s18.9-42.1 42.1-42.1c23.2 0 42.1 18.9 42.1 42.1s-18.9 42.1-42.1 42.1z" />
<glyph unicode="&#xe944;" glyph-name="305" d="M439.8 202.7c-25.4 0-43.3 7.4-53.1 22.1-17.8 26.6-1.6 65.6 8.1 89l1 2.4c10.4 25.2 36.2 88.1 50.2 127.3l1.5 4.1c1.3 3.6 2.7 7.5 3.9 11-3-1.4-6.7-3.2-11.3-5.5-38-19.4-44.9-24-46.1-24.9l-20 19.4c48.9 60.8 99.9 91.6 151.6 91.6 22.4 0 38.4-7.2 47.6-21.5 14.2-22.1 9.5-57.2-14.8-110.3l-51-118.1c1.8 0.9 4 2.1 6.6 3.5 23.7 13.5 33.5 22.7 37.6 28.1 1.1 2 2.2 4 3.3 6.1l25.5-11.4c-1.1-3.1-2.8-6.3-5-9.4-38.6-68.8-84.1-103.5-135.6-103.5zM463.9 491.2c4.8 0 9-1.4 12.7-4.6 11.1-9.7 5.9-24.4-2.8-48.5l-1.5-4.1c-14.2-39.8-40.2-103.2-50.7-128.6l-1-2.4c-6.5-15.7-20.1-48.5-10.7-62.6 5.3-8 19.1-9.7 29.8-9.7 22.6 0 44.2 9.3 64.6 27.7-7.6-1.6-14.7-0.9-20.6 4.1-12.5 10.6-5.6 29.2-3 36.3l51.8 120c25.5 55.9 21.5 76.5 16.8 83.8-3.7 5.7-11.7 8.6-24 8.6-21.2 0-42.6-6.7-64.1-20 1 0 1.8 0 2.7 0zM552.8 558.1c-38.6 0-70.1 31.4-70.1 70.1s31.4 70.1 70.1 70.1c38.6 0 70.1-31.4 70.1-70.1s-31.4-70.1-70.1-70.1zM552.8 670.3c-23.2 0-42.1-18.9-42.1-42.1s18.9-42.1 42.1-42.1c23.2 0 42.1 18.9 42.1 42.1s-18.9 42.1-42.1 42.1zM512 960c-282.3 0-512-229.7-512-512 0-282.4 229.7-512 512-512s512 229.6 512 512c0 282.3-229.7 512-512 512z" />
<glyph unicode="&#xe945;" glyph-name="308" d="M512 960c-282.323 0-512-229.677-512-512s229.677-512 512-512 512 229.677 512 512-229.677 512-512 512zM512-33.882c-265.713 0-481.882 216.154-481.882 481.882 0 265.713 216.169 481.882 481.882 481.882 265.728 0 481.882-216.169 481.882-481.882 0-265.728-216.154-481.882-481.882-481.882zM506.94 697.976c-60.416 0-147.802-40.508-147.802-113.739 0-34.199 21.173-58.082 51.501-58.082 24.696 0 39.394 16.866 52.375 31.729 12.845 14.743 23.928 27.452 43.927 27.452 16.339 0 34.53-12.469 34.53-30.374 0-22.287-11.851-29.455-36.668-36.292l-7.529-1.958c-23.191-5.963-52.058-13.342-52.058-44.288v-59.784c0-33.175 23.898-56.335 58.112-56.335 33.099 0 58.097 24.215 58.097 56.335v10.089c66.831 20.616 103.424 67.192 103.424 132.232 0.030 82.854-66.379 143.014-157.907 143.014zM542.705 448.768l-11.384-2.846v-33.25c0-15.676-11.249-26.232-27.979-26.232-17.528 0-27.994 9.818-27.994 26.232v59.768c0 6.099 5.768 9.080 29.41 15.104l7.966 2.093c19.11 5.271 58.88 16.188 58.88 65.355 0 32.783-29.621 60.491-64.648 60.491-33.687 0-51.953-20.932-66.635-37.768-11.58-13.282-19.215-21.429-29.666-21.429-19.848 0-21.384 21.429-21.384 27.964 0 51.802 68.533 83.622 117.685 83.622 61.56 0 127.834-35.343 127.834-112.881-0.030-68.608-50.086-95.624-92.085-106.225zM503.326 321.446c-34.033 0-61.711-27.678-61.711-61.696 0-34.033 27.678-61.726 61.711-61.726s61.711 27.693 61.711 61.726c-0.015 34.018-27.678 61.696-61.711 61.696zM503.326 228.141c-17.423 0-31.593 14.155-31.593 31.608 0 17.393 14.17 31.578 31.593 31.578 17.408 0 31.593-14.14 31.593-31.578s-14.185-31.608-31.593-31.608z" />
<glyph unicode="&#xe946;" glyph-name="309" d="M503.326 291.358c-17.423 0-31.593-14.155-31.593-31.608 0-17.408 14.17-31.608 31.593-31.608 17.408 0 31.593 14.17 31.593 31.608s-14.185 31.608-31.593 31.608zM506.925 667.859c-49.137 0-117.685-31.804-117.685-83.607 0-6.566 1.551-27.979 21.399-27.979 10.451 0 18.086 8.147 29.666 21.429 14.667 16.836 32.934 37.783 66.62 37.783 35.057 0 64.663-27.708 64.663-60.506 0-49.152-39.77-60.085-58.88-65.355l-7.951-2.078c-23.642-6.039-29.425-9.020-29.425-15.104v-59.799c0-16.414 10.466-26.187 27.994-26.187 16.745 0 27.994 10.511 27.994 26.187v33.25l11.369 2.861c42.014 10.601 92.040 37.617 92.040 106.195 0 77.583-66.229 112.911-127.804 112.911zM512 960c-282.323 0-512-229.677-512-512 0-282.308 229.677-512 512-512s512 229.692 512 512c0 282.323-229.677 512-512 512zM503.326 198.024c-34.033 0-61.711 27.693-61.711 61.726 0 34.048 27.678 61.726 61.711 61.726s61.711-27.678 61.711-61.726c-0.015-34.033-27.678-61.726-61.711-61.726zM561.438 422.746v-10.104c0-32.12-24.983-56.32-58.112-56.32-34.214 0-58.112 23.16-58.112 56.32v59.799c0 30.961 28.868 38.34 52.073 44.273l7.529 1.958c24.787 6.837 36.653 14.020 36.653 36.292 0 17.905-18.206 30.389-34.545 30.389-19.983 0-31.081-12.725-43.927-27.452-12.966-14.878-27.678-31.744-52.36-31.744-30.328 0-51.516 23.898-51.516 58.097 0 73.216 87.386 113.724 147.802 113.724 91.528 0 157.952-60.145 157.952-142.999 0-65.039-36.578-111.631-103.439-132.232z" />
<glyph unicode="&#xe947;" glyph-name="312" d="M512 960c-282.3 0-511.9-229.7-511.9-512s229.7-512 512-512 512 229.7 512 512-229.8 512-512.1 512v0zM512-36.9c-267.5 0-485.1 217.5-485.1 484.9s217.6 485 485.1 485c267.5 0 485.1-217.6 485.1-485s-217.6-484.9-485.1-484.9v0zM683.3 640.5h-237.1c-29.4 0-53.1-23.7-53.8-53-38.7 0-52.5-30.6-52.5-60.1h0.9c-29.7 0-53.7-24.2-53.7-54.1v-163.8c0-29.9 24-54.1 53.7-54.1h237.1c29.7 0 53.7 24.1 53.7 54.1v6.1c-0.3 0-0.6-0.1-0.9-0.1v31.5c0.3 0 0.6 0.1 0.9 0.1v-31.5c28.9 0.5 52.2 23.8 52.8 52.9 29.1 0.6 52.6 24.5 52.6 54.1v163.7c0 29.9-24.2 54.2-53.7 54.2v0zM600.2 309.5c0-12.5-10-22.5-22.4-22.5h-237c-12.4 0-22.4 10.1-22.4 22.5v163.8c0 12.5 10 22.5 22.4 22.5h237.1c12.4 0 22.4-10.1 22.4-22.5v-163.8zM653 369.7c0-12.2-9.5-22-21.5-22.4v126c0 29.9-24 54.1-53.7 54.1h-206.6c0 12.5 3.6 28.5 22.4 28.5h237.1c12.4 0 22.4-10.1 22.4-22.5l-0.1-163.7zM684.3 400.1v133.3c0 29.9-24 54.1-53.7 54.1h-206.8c0.6 11.9 10.3 21.3 22.4 21.3h237.1c12.2 0 22.4-10.1 22.4-22.5v-163.6c-0.1-12.2-9.6-21.9-21.4-22.6v0z" />
<glyph unicode="&#xe948;" glyph-name="313" d="M321.476 472.154v-164.126c0-12.499 10.089-22.588 22.588-22.588h239.435c12.499 0 22.573 10.089 22.573 22.588v164.126c0 12.499-10.074 22.588-22.573 22.588h-239.435c-12.499 0-22.588-10.089-22.588-22.588zM659.396 368.264v164.126c0 12.499-10.089 22.588-22.588 22.588h-239.435c-18.929 0-22.588-16.098-22.588-28.597h208.715c29.937 0 54.242-24.26 54.242-54.242v-126.374c-0.331-0.030-0.587-0.090-0.934-0.090v-31.624c0.316 0 0.587 0.090 0.934 0.090v31.608c12.017 0.482 21.655 10.315 21.655 22.513zM689.935 608h-239.405c-12.198 0-21.986-9.487-22.588-21.384h208.866c29.952 0 54.227-24.245 54.227-54.227v-133.572c11.912 0.617 21.534 10.36 21.534 22.588v164.006c-0.045 12.499-10.24 22.588-22.633 22.588zM517.015 960c-285.079 0-517.015-230.219-517.015-513.205s231.936-513.205 517.015-513.205c285.109 0 517.030 230.234 517.030 513.22s-231.921 513.19-517.030 513.19zM744.192 421.406c0-29.651-23.793-53.64-53.158-54.227-0.587-29.184-24.2-52.57-53.293-53.037v-6.114c0-29.967-24.26-54.212-54.242-54.212h-239.435c-29.967 0-54.212 24.215-54.212 54.212v164.126c0 29.967 24.245 54.242 54.212 54.242h-0.904c0 29.5 13.96 60.235 53.007 60.235 0.753 29.365 24.696 53.158 54.362 53.158h239.405c29.816 0 54.257-24.395 54.257-54.362v-164.021z" />
<glyph unicode="&#xe949;" glyph-name="316" d="M512 960c-282.323 0-512-229.692-512-512 0-282.323 229.677-512 512-512s512 229.677 512 512c0 282.308-229.677 512-512 512zM512-33.882c-265.698 0-481.882 216.154-481.882 481.882 0 265.713 216.184 481.882 481.882 481.882 265.728 0 481.882-216.169 481.882-481.882 0-265.728-216.154-481.882-481.882-481.882zM586.406 643.765h-145.784c-90.323 0-169.547-82.929-169.547-177.438 0-83.14 62.118-155 124.040-175.887v-95.232l149.624 91.859h41.683c88.742 0 166.566 83.32 166.566 178.327-0.030 95.021-77.854 178.372-166.581 178.372zM586.406 317.169h-50.176l-111.029-68.141v64.753l-11.64 2.726c-47.119 10.918-112.384 69.075-112.384 149.835 0 77.101 66.455 147.32 139.43 147.32h145.815c72.644 0 136.433-69.286 136.433-148.269-0.015-77.583-65.054-148.224-136.448-148.224zM632.064 448h-240.535c-8.312 0-15.059-6.746-15.059-15.059 0-8.328 6.746-15.059 15.059-15.059h240.535c8.328 0 15.059 6.731 15.059 15.059 0 8.312-6.746 15.059-15.059 15.059z" />
<glyph unicode="&#xe94a;" glyph-name="317" d="M586.376 613.647h-145.8c-72.99 0-139.445-70.219-139.445-147.32 0-80.76 65.265-138.918 112.399-149.85l11.656-2.711v-64.738l111.014 68.141h50.176c71.379 0 136.433 70.626 136.433 148.194 0 78.999-63.714 148.284-136.433 148.284zM632.064 417.882h-240.55c-8.312 0-15.059 6.731-15.059 15.059 0 8.312 6.746 15.059 15.059 15.059h240.55c8.328 0 15.059-6.731 15.059-15.059s-6.776-15.059-15.059-15.059zM512 960c-282.323 0-512-229.692-512-512s229.677-512 512-512 512 229.677 512 512-229.677 512-512 512zM586.376 287.051h-41.683l-149.624-91.874v95.232c-61.892 20.917-124.009 92.792-124.009 175.917 0 94.509 79.224 177.438 169.547 177.438h145.815c88.696 0 166.52-83.351 166.52-178.387 0-94.991-77.824-178.327-166.566-178.327z" />
<glyph unicode="&#xe94b;" glyph-name="320" d="M512 960c-282.323 0-512-229.677-512-512s229.677-512 512-512 512 229.677 512 512-229.677 512-512 512zM512-33.882c-265.713 0-481.882 216.154-481.882 481.882 0 265.713 216.169 481.882 481.882 481.882s481.882-216.169 481.882-481.882c0-265.728-216.169-481.882-481.882-481.882zM512 384.271c47.812 0 86.769 38.566 86.769 85.911v63.714c0 8.312-6.761 15.059-15.059 15.059-8.358 0-15.059-6.746-15.059-15.059v-63.714c0-30.75-25.419-55.793-56.651-55.793s-56.636 25.028-56.636 55.793v152.2c0 30.765 25.404 55.808 56.636 55.808s56.651-25.043 56.651-55.808v-22.212c0-8.328 6.701-15.059 15.059-15.059 8.297 0 15.059 6.731 15.059 15.059v22.212c0 47.375-38.957 85.926-86.769 85.926-47.827 0-86.754-38.566-86.754-85.926v-152.215c0-47.36 38.927-85.896 86.754-85.896zM641.024 486.054c-8.297 0-15.059-6.716-15.059-15.059v-4.849c0-64.151-51.14-116.299-113.965-116.299-62.856 0-113.98 52.149-113.98 116.299v4.849c0 8.343-6.746 15.059-15.059 15.059s-15.059-6.716-15.059-15.059v-4.849c0-76.86 58.639-139.942 132.834-145.83v-117.579c0-8.328 6.746-15.059 15.059-15.059 8.328 0 15.059 6.731 15.059 15.059v118.362c70.566 9.427 125.229 70.761 125.229 145.016v4.849c0 8.373-6.731 15.089-15.059 15.089z" />
<glyph unicode="&#xe94c;" glyph-name="321" d="M512 960c-282.323 0-512-229.677-512-512 0-282.308 229.677-512 512-512s512 229.692 512 512c0 282.323-229.677 512-512 512zM425.246 622.396c0 47.36 38.927 85.911 86.754 85.911s86.769-38.566 86.769-85.911v-22.212c0-8.328-6.761-15.059-15.059-15.059-8.328 0-15.059 6.731-15.059 15.059v22.212c0 30.765-25.419 55.793-56.651 55.793s-56.636-25.028-56.636-55.793v-152.215c0-30.765 25.404-55.808 56.636-55.808s56.651 25.028 56.651 55.808v63.699c0 8.328 6.731 15.059 15.059 15.059 8.297 0 15.059-6.731 15.059-15.059v-63.699c0-47.375-38.942-85.926-86.769-85.926s-86.754 38.566-86.754 85.926v152.215zM656.083 466.146c0-74.21-54.679-135.56-125.229-145.001v-118.377c0-8.328-6.731-15.059-15.059-15.059-8.312 0-15.059 6.731-15.059 15.059v117.594c-74.195 5.873-132.834 68.939-132.834 145.815v4.864c0 8.328 6.746 15.059 15.059 15.059s15.059-6.731 15.059-15.059v-4.864c0-64.12 51.125-116.284 113.98-116.284 62.84 0 113.965 52.164 113.965 116.284v4.864c0 8.328 6.761 15.059 15.059 15.059 8.328 0 15.059-6.731 15.059-15.059v-4.894z" />
<glyph unicode="&#xe94d;" glyph-name="324" d="M512 960c-282.338 0-512-229.677-512-512s229.677-512 512-512 512 229.677 512 512-229.677 512-512 512zM512-33.882c-265.728 0-481.882 216.169-481.882 481.882 0 265.728 216.154 481.882 481.882 481.882 265.713 0 481.882-216.154 481.882-481.882 0-265.713-216.169-481.882-481.882-481.882zM736.738 595.019l-455.439-91.829c-6.701-1.37-11.656-7.078-12.062-13.884-0.392-6.837 3.87-13.071 10.36-15.209l113.664-37.12 57.254-127.383c2.44-5.406 7.831-8.855 13.734-8.855 0.316 0 0.648 0 0.979 0.030 3.087 0.181 5.933 1.325 8.267 3.147l0.632-0.723 64.783 56.29 71.59-55.597c3.644-2.831 8.418-3.84 12.86-2.726 4.472 1.069 8.177 4.186 10.089 8.403l119.989 264.478c2.334 5.15 1.596 11.159-1.928 15.571-3.509 4.397-9.216 6.475-14.773 5.406zM343.356 484.969l228.397 46.050-169.623-65.235-58.775 19.185zM479.202 418.063l-17.769-59.272-37.376 83.14 194.349 74.737-133.165-89.193 0.813-1.235c-3.132-1.882-5.768-4.563-6.852-8.177zM493.116 359.59l8.614 28.777 12.92-10.044-21.534-18.733zM613.918 339.396l-95.413 74.104 185.389 124.175-89.976-198.28z" />
<glyph unicode="&#xe94e;" glyph-name="325" d="M493.131 359.575l21.564 18.733-12.951 10.044zM618.406 516.683l-194.349-74.767 37.376-83.14 17.784 59.256c1.069 3.614 3.72 6.28 6.867 8.207l-0.828 1.22 133.15 89.224zM343.371 484.954l58.76-19.185 169.668 65.235zM512 960c-282.323 0-512-229.692-512-512 0-282.323 229.677-512 512-512s512 229.677 512 512c0 282.308-229.677 512-512 512zM753.438 574.012l-120.004-264.478c-1.912-4.171-5.617-7.258-10.089-8.388-4.442-1.114-9.201-0.12-12.86 2.741l-71.59 55.582-64.783-56.29-0.632 0.738c-2.334-1.822-5.18-2.967-8.267-3.177-0.331 0-0.663-0.030-0.994-0.030-5.888 0-11.279 3.448-13.719 8.885l-57.254 127.383-113.664 37.105c-6.49 2.138-10.752 8.373-10.36 15.209 0.407 6.822 5.361 12.529 12.062 13.884l455.439 91.829c5.557 1.069 11.249-0.979 14.758-5.406 3.554-4.427 4.292-10.436 1.958-15.586zM613.948 339.381l89.931 198.28-185.374-124.175z" />
<glyph unicode="&#xe94f;" glyph-name="328" d="M512 960c-282.323 0-512-229.677-512-512s229.677-512 512-512 512 229.677 512 512-229.677 512-512 512zM512-33.882c-265.713 0-481.882 216.169-481.882 481.882 0 265.728 216.169 481.882 481.882 481.882 265.728 0 481.882-216.154 481.882-481.882 0-265.713-216.154-481.882-481.882-481.882zM713.879 655.27h-337.257c-23.989 0-42.767-22.814-42.767-51.908v-86.92c0-8.312 6.731-15.059 15.059-15.059s15.059 6.746 15.059 15.059v86.92c0 12.845 6.671 21.79 12.649 21.79h337.257c5.993 0 12.71-8.96 12.71-21.79v-310.498c0-12.966-6.701-21.986-12.71-21.986h-337.257c-5.963 0-12.649 9.020-12.649 21.986v88.576c0 8.328-6.731 15.059-15.059 15.059s-15.059-6.731-15.059-15.059v-88.591c0-29.229 18.778-52.119 42.767-52.119h337.257c24.019 0 42.827 22.889 42.827 52.119v310.498c0 29.109-18.808 51.923-42.827 51.923zM510.6 358.204c-5.903-5.918-5.903-15.405 0-21.293 2.921-2.936 6.792-4.412 10.632-4.412 3.87 0 7.725 1.476 10.647 4.412l102.641 102.611c5.737 5.722 5.918 14.953 0.407 20.887l-91.964 99.659c-5.647 6.099-15.164 6.505-21.293 0.858-6.099-5.632-6.505-15.179-0.858-21.278l67.012-72.599h-305.468c-8.312 0-15.059-6.746-15.059-15.059 0-8.328 6.746-15.059 15.059-15.059h306.974l-78.728-78.728z" />
<glyph unicode="&#xe950;" glyph-name="329" d="M512 960c-282.323 0-512-229.692-512-512 0-282.323 229.677-512 512-512 282.338 0 512 229.677 512 512 0 282.308-229.677 512-512 512zM267.294 451.96c0 8.328 6.746 15.059 15.059 15.059h305.498l-67.042 72.614c-5.617 6.114-5.256 15.646 0.873 21.278 6.144 5.647 15.646 5.24 21.293-0.858l91.994-99.644c5.466-5.963 5.301-15.164-0.437-20.887l-102.641-102.626c-2.921-2.952-6.761-4.412-10.632-4.412-3.855 0-7.71 1.461-10.632 4.412-5.903 5.873-5.903 15.39 0 21.293l78.712 78.728h-306.989c-8.312 0-15.059 6.731-15.059 15.044zM756.706 292.819c0-29.199-18.824-52.119-42.827-52.119h-337.257c-23.989 0-42.782 22.904-42.782 52.119v88.606c0 8.328 6.746 15.059 15.059 15.059 8.328 0 15.059-6.731 15.059-15.059v-88.606c0-12.936 6.671-22.001 12.664-22.001h337.257c5.993 0 12.71 9.065 12.71 22.001v310.498c0 12.86-6.701 21.805-12.71 21.805h-337.257c-5.993 0-12.664-8.945-12.664-21.805v-86.904c0-8.328-6.731-15.059-15.059-15.059-8.312 0-15.059 6.731-15.059 15.059v86.904c0 29.139 18.793 51.923 42.782 51.923h337.257c24.004 0 42.827-22.799 42.827-51.923v-310.498z" />
<glyph unicode="&#xe951;" glyph-name="332" d="M512 960c-282.323 0-512-229.677-512-512s229.677-512 512-512 512 229.677 512 512-229.677 512-512 512zM512-33.882c-265.713 0-481.882 216.169-481.882 481.882 0 265.728 216.169 481.882 481.882 481.882s481.882-216.154 481.882-481.882c0-265.713-216.169-481.882-481.882-481.882zM614.264 544.316h-184.109v69.18c0 33.943 27.618 61.545 61.56 61.545h38.28c28.672 0 53.971-20.299 60.115-48.264 1.792-8.117 9.803-13.176 17.92-11.46 8.117 1.762 13.267 9.788 11.49 17.92-9.141 41.683-46.788 71.906-89.525 71.906h-38.28c-50.537 0-91.678-41.111-91.678-91.663v-69.963c-34.334-3.75-61.259-32.587-61.259-67.945v-103.394c0-94.901 77.192-172.092 172.092-172.092s172.077 77.192 172.077 172.092v103.394c0 37.933-30.795 68.744-68.683 68.744zM652.83 372.224c0-78.276-63.684-141.975-141.96-141.975s-141.975 63.684-141.975 141.975v103.394c0 21.263 17.272 38.581 38.566 38.581h206.803c21.278 0 38.566-17.303 38.566-38.581v-103.394zM514.696 429.658c-16.926 0-30.645-13.704-30.645-30.63 0-12.86 7.936-23.808 19.155-28.371v-36.819c0-6.355 5.15-11.52 11.49-11.52 6.325 0 11.475 5.165 11.475 11.52v36.819c11.234 4.563 19.155 15.511 19.155 28.371 0.015 16.926-13.704 30.63-30.63 30.63z" />
<glyph unicode="&#xe952;" glyph-name="333" d="M615.394 514.168h-206.803c-21.263 0-38.581-17.288-38.581-38.566v-103.394c0-78.291 63.699-141.975 141.975-141.975s141.975 63.684 141.975 141.975v103.394c0 21.263-17.318 38.566-38.566 38.566zM527.33 370.643v-36.834c0-6.34-5.165-11.49-11.505-11.49s-11.505 5.15-11.505 11.49v36.834c-11.219 4.548-19.14 15.496-19.14 28.371 0 16.926 13.719 30.63 30.645 30.63s30.63-13.704 30.63-30.63c0-12.86-7.921-23.823-19.125-28.371zM512 960c-282.338 0-512-229.692-512-512 0-282.323 229.662-512 512-512 282.323 0 512 229.677 512 512 0 282.308-229.677 512-512 512zM684.077 372.209c0-94.901-77.192-172.092-172.077-172.092-94.901 0-172.107 77.192-172.107 172.092v103.394c0 35.358 26.925 64.196 61.274 67.945v69.933c0 50.552 41.126 91.663 91.663 91.663h38.28c42.737 0 80.384-30.238 89.525-71.891 1.792-8.132-3.358-16.158-11.475-17.935-8.117-1.717-16.143 3.358-17.935 11.46-6.144 27.979-31.428 48.264-60.115 48.264h-38.28c-33.943 0-61.545-27.603-61.545-61.545v-69.18h184.109c37.873 0 68.683-30.81 68.683-68.698v-103.409z" />
<glyph unicode="&#xe953;" glyph-name="336" d="M512 960c-282.323 0-512-229.677-512-512s229.677-512 512-512c282.308 0 512 229.677 512 512s-229.692 512-512 512zM512-33.882c-265.728 0-481.882 216.169-481.882 481.882 0 265.728 216.154 481.882 481.882 481.882 265.713 0 481.882-216.154 481.882-481.882 0-265.713-216.169-481.882-481.882-481.882zM622.788 543.563v69.933c0 50.552-41.111 91.678-91.648 91.678h-38.31c-50.522 0-91.663-41.111-91.663-91.678v-69.933c-34.334-3.75-61.259-32.587-61.259-67.945v-103.394c0-94.901 77.192-172.092 172.092-172.092 94.886 0 172.077 77.192 172.077 172.092v103.394c0 35.358-26.925 64.196-61.289 67.945zM431.3 613.481c0 33.958 27.603 61.56 61.545 61.56h38.295c33.943 0 61.53-27.603 61.53-61.56v-69.18h-161.37v69.18zM653.96 372.224c0-78.276-63.684-141.975-141.96-141.975s-141.975 63.684-141.975 141.975v103.394c0 21.263 17.272 38.581 38.566 38.581h206.803c21.278 0 38.566-17.303 38.566-38.581v-103.394zM512 429.658c-16.941 0-30.645-13.719-30.645-30.645 0-12.845 7.921-23.808 19.14-28.356v-36.834c0-6.355 5.15-11.505 11.505-11.505 6.325 0 11.505 5.15 11.505 11.505v36.834c11.204 4.548 19.14 15.511 19.14 28.356-0.015 16.926-13.734 30.645-30.645 30.645z" />
<glyph unicode="&#xe954;" glyph-name="337" d="M592.67 613.481c0 33.943-27.618 61.545-61.53 61.545h-38.31c-33.928 0-61.53-27.603-61.53-61.545v-69.21h161.37v69.21zM615.394 514.168h-206.803c-21.263 0-38.581-17.288-38.581-38.566v-103.394c0-78.291 63.699-141.975 141.99-141.975 78.261 0 141.96 63.684 141.96 141.975v103.394c0 21.263-17.318 38.566-38.566 38.566zM523.505 370.643v-36.834c0-6.34-5.165-11.49-11.505-11.49-6.355 0-11.505 5.15-11.505 11.49v36.834c-11.219 4.548-19.14 15.496-19.14 28.371 0 16.926 13.704 30.63 30.645 30.63 16.911 0 30.63-13.704 30.63-30.63 0-12.86-7.921-23.823-19.125-28.371zM512 960c-282.338 0-512-229.692-512-512 0-282.323 229.662-512 512-512 282.323 0 512 229.677 512 512 0 282.308-229.677 512-512 512zM512 200.117c-94.901 0-172.092 77.192-172.092 172.092v103.394c0 35.358 26.925 64.196 61.259 67.945v69.933c0 50.552 41.126 91.663 91.663 91.663h38.31c50.507 0 91.648-41.096 91.648-91.663v-69.933c34.349-3.75 61.259-32.587 61.259-67.945v-103.394h0.015c0.015-94.901-77.176-172.092-172.062-172.092z" />
<glyph unicode="&#xe955;" glyph-name="340" d="M512 960c-282.323 0-512-229.677-512-512s229.677-512 512-512 512 229.677 512 512-229.677 512-512 512zM512-33.882c-265.713 0-481.882 216.169-481.882 481.882 0 265.728 216.169 481.882 481.882 481.882 265.728 0 481.882-216.154 481.882-481.882 0-265.713-216.154-481.882-481.882-481.882zM600.787 624.715h-177.574c-23.386 0-42.391-19.607-42.391-43.716v-286.63c0-24.109 19.019-43.686 42.391-43.686h177.604c23.371 0 42.376 19.607 42.376 43.686v286.63c0.015 24.124-19.019 43.716-42.406 43.716zM613.090 294.37c0-7.499-5.496-13.568-12.258-13.568h-177.619c-6.776 0-12.273 6.069-12.273 13.568v286.63c0 7.499 5.496 13.598 12.273 13.598h177.604c6.761 0 12.258-6.099 12.258-13.598v-286.63zM861.801 581.331h-136.614c-23.386 0-42.376-19.019-42.376-42.36v-218.624c0-23.386 19.034-42.36 42.376-42.36h136.614c23.356 0 42.36 19.019 42.36 42.36v218.624c0.015 23.356-19.019 42.36-42.36 42.36zM874.059 320.346c0-6.746-5.466-12.243-12.243-12.243h-136.629c-6.761 0-12.258 5.496-12.258 12.243v218.624c0 6.761 5.496 12.243 12.258 12.243h136.629c6.761 0 12.243-5.481 12.243-12.243v-218.624zM298.827 581.331h-136.614c-23.371 0-42.376-19.019-42.376-42.36v-218.624c0-23.386 19.019-42.36 42.376-42.36h136.614c23.386 0 42.391 19.019 42.391 42.36v218.624c0 23.356-19.019 42.36-42.391 42.36zM311.1 320.346c0-6.746-5.512-12.243-12.273-12.243h-136.614c-6.761 0-12.258 5.496-12.258 12.243v218.624c0 6.761 5.496 12.243 12.258 12.243h136.614c6.761 0 12.273-5.481 12.273-12.243v-218.624z" />
<glyph unicode="&#xe956;" glyph-name="341" d="M600.787 594.598h-177.574c-6.776 0-12.273-6.099-12.273-13.598v-286.615c0-7.514 5.496-13.613 12.273-13.613h177.604c6.761 0 12.258 6.099 12.258 13.613v286.615c0.015 7.499-5.481 13.598-12.288 13.598zM861.801 551.213h-136.599c-6.761 0-12.273-5.496-12.273-12.258v-218.609c0-6.761 5.512-12.273 12.273-12.273h136.599c6.761 0 12.258 5.512 12.258 12.273v218.609c0 6.761-5.496 12.258-12.258 12.258zM298.827 551.213h-136.614c-6.761 0-12.258-5.496-12.258-12.258v-218.609c0-6.761 5.496-12.273 12.258-12.273h136.614c6.761 0 12.273 5.512 12.273 12.273v218.609c0 6.761-5.512 12.258-12.273 12.258zM512 960c-282.323 0-512-229.692-512-512 0-282.323 229.677-512 512-512s512 229.677 512 512c0 282.308-229.677 512-512 512zM341.218 320.346c0-23.386-19.019-42.376-42.391-42.376h-136.614c-23.371 0-42.376 19.034-42.376 42.376v218.609c0 23.371 19.019 42.376 42.376 42.376h136.614c23.386 0 42.391-19.019 42.391-42.376v-218.609zM643.192 294.37c0-24.109-19.004-43.716-42.391-43.716h-177.604c-23.371 0-42.376 19.637-42.376 43.716v286.63c0 24.109 19.019 43.716 42.376 43.716h177.589c23.416 0 42.391-19.622 42.391-43.716v-286.63zM861.801 277.971h-136.599c-23.401 0-42.391 19.034-42.391 42.376v218.609c0 23.371 19.034 42.376 42.391 42.376h136.599c23.401 0 42.376-19.019 42.376-42.376v-218.609c0-23.341-19.004-42.376-42.376-42.376z" />
<glyph unicode="&#xe957;" glyph-name="344" d="M512 960c-282.323 0-512-229.677-512-512s229.677-512 512-512 512 229.677 512 512-229.677 512-512 512zM512-33.882c-265.698 0-481.882 216.169-481.882 481.882s216.184 481.882 481.882 481.882c265.728 0 481.882-216.154 481.882-481.882 0-265.713-216.154-481.882-481.882-481.882zM695.085 673.611h-230.31c-48.459 0-87.883-39.424-87.883-87.868v-73.005h28.943v73.005c0 32.497 26.428 58.94 58.94 58.94h230.31c32.497 0 58.94-26.443 58.94-58.94v-275.471c0-32.527-26.443-58.97-58.94-58.97h-230.31c-32.512 0-58.94 26.443-58.94 58.97v69.060h-28.943v-69.060c0-48.474 39.424-87.883 87.883-87.883h230.31c48.444 0 87.883 39.409 87.883 87.883v275.471c0 48.444-39.439 87.868-87.883 87.868zM589.448 433.559v28.913h-353.144l94.991 94.991-20.45 20.45-130.033-130.003 129.807-129.822 20.465 20.435-95.006 95.036h353.37z" />
<glyph unicode="&#xe958;" glyph-name="345" d="M512 960c-282.775 0-512-229.225-512-512 0-282.76 229.225-512 512-512 282.76 0 512 229.24 512 512 0 282.775-229.24 512-512 512zM310.618 307.757l-129.807 129.822 130.033 130.018 20.435-20.45-94.991-94.991h353.16v-28.913h-353.37l94.991-95.021-20.45-20.465zM782.953 299.942c0-48.459-39.424-87.883-87.883-87.883h-230.31c-48.459 0-87.883 39.424-87.883 87.883v69.075h28.943v-69.075c0-32.512 26.428-58.955 58.94-58.955h230.31c32.482 0 58.955 26.443 58.955 58.955v275.486c0 32.497-26.473 58.94-58.955 58.94h-230.31c-32.512 0-58.94-26.443-58.94-58.94v-73.005h-28.943v73.005c0 48.444 39.424 87.868 87.883 87.868h230.31c48.459 0 87.883-39.424 87.883-87.868v-275.486z" />
<glyph unicode="&#xe959;" glyph-name="346" horiz-adv-x="1100" d="M499.352 458.088h25.295v-20.175h-25.295v20.175z" />
<glyph unicode="&#xe95a;" glyph-name="347" d="M499.352 458.088h25.295v-20.175h-25.295v20.175z" />
<glyph unicode="&#xe95b;" glyph-name="348" d="M512 960c-282.323 0-512-229.677-512-512s229.677-512 512-512 512 229.677 512 512-229.677 512-512 512zM512-33.882c-265.698 0-481.882 216.169-481.882 481.882 0 265.728 216.184 481.882 481.882 481.882 265.728 0 481.882-216.154 481.882-481.882 0-265.713-216.154-481.882-481.882-481.882zM652.152 673.611h-260.442c-48.459 0-87.883-39.424-87.883-87.868v-72.99h28.943v73.005c0 32.497 26.428 58.94 58.94 58.94h260.427c32.467 0 58.94-26.443 58.94-58.94v-275.486c0-32.497-26.473-58.94-58.94-58.94h-260.427c-32.512 0-58.94 26.443-58.94 58.94v69.060h-28.943v-69.060c0-48.474 39.424-87.883 87.883-87.883h260.427c48.444 0 87.883 39.409 87.883 87.883v275.471c0.015 48.444-39.439 87.868-87.868 87.868zM471.326 338.522l20.435-20.435 130.033 130.018-129.792 129.822-20.465-20.45 94.991-95.021h-353.355v-28.928h353.144l-94.991-95.006z" />
<glyph unicode="&#xe95c;" glyph-name="349" d="M512 960c-282.323 0-512-229.692-512-512 0-282.323 229.677-512 512-512s512 229.677 512 512c0 282.308-229.677 512-512 512zM213.158 462.456h353.37l-95.006 95.006 20.45 20.465 129.807-129.822-0.226-0.226-20.239-20.269-109.568-109.553-20.45 20.465 94.991 94.991h-353.129v28.943zM740.036 310.272c0-48.474-39.439-87.883-87.883-87.883h-260.427c-48.474 0-87.898 39.409-87.898 87.883v69.060h28.943v-69.090c0-32.497 26.443-58.94 58.955-58.94h260.412c32.497 0 58.94 26.443 58.94 58.94v275.486c0 32.497-26.443 58.94-58.94 58.94h-260.412c-32.512 0-58.955-26.443-58.955-58.94v-73.005h-28.943v73.005c0 48.459 39.424 87.868 87.898 87.868h260.412c48.444 0 87.883-39.409 87.883-87.868v-275.456z" />
<glyph unicode="&#xe95d;" glyph-name="400" horiz-adv-x="1118" d="M682.267 952.98c-23.997 12.369-53.41 8.003-87.363-12.962l-318.168-223.892h-215.97c-33.496 0-60.766-26.408-60.766-58.853v-420.46c0-32.243 26.125-56.522 60.766-56.522h222.046l312.077-224.283c21.571-13.325 41.27-20.008 58.92-20.008 10.321 0 19.914 2.291 28.766 6.858 34.856 17.947 38.373 62.168 38.656 67.139l0.054 873.283-0.054 1.496c-0.283 5.080-3.813 50.082-38.966 68.204zM666.988 12.611c-0.741-7.734-4.527-19.456-9.432-21.922-3.234-1.63-13.811-1.186-33.199 10.604l-323.961 232.893h-239.629c-3.988 0-6.104 1.374-6.481 2.627v420.46c0 3.22 3.341 4.972 6.481 4.972h233.27l330.227 232.421c17.933 10.954 28.941 12.544 32.916 10.509 5.147-2.6 9.095-14.969 9.809-22.878v-869.686zM995.503 710.279c-11.075 9.997-28.268 9.189-38.333-1.846-10.078-11.021-9.27-28.052 1.859-38.063 67.692-61.036 105-143.495 105-232.179s-37.309-171.156-105.027-232.246c-11.102-9.984-11.911-27.042-1.832-38.063 5.336-5.848 12.692-8.812 20.089-8.812 6.494 0 13.056 2.317 18.243 7.006 78.053 70.373 122.813 169.539 122.813 272.101 0 104.084-43.601 200.717-122.813 272.101zM818.392 589.595c-11.453 9.661-28.551 8.259-38.265-3.072s-8.327-28.335 3.085-37.982c32.889-27.769 51.793-67.651 51.793-109.393 0-41.782-18.85-81.651-51.766-109.352-11.439-9.661-12.813-26.664-3.099-37.982 5.349-6.279 13.002-9.499 20.682-9.499 6.238 0 12.477 2.088 17.583 6.413 45.043 37.996 70.899 92.847 70.899 150.447-0.027 57.546-25.856 112.384-70.912 150.42z" />
<glyph unicode="&#xe95e;" glyph-name="401" horiz-adv-x="1253" d="M677.565 953.061c-23.835 12.382-53.005 8.003-86.69-12.962l-315.85-223.892h-214.38c-33.267 0-60.322-26.408-60.322-58.867v-420.473c0-32.216 25.937-56.495 60.322-56.495h220.416l309.814-224.296c21.396-13.312 40.947-19.968 58.462-19.968 10.253 0 19.779 2.291 28.551 6.858 34.6 17.947 38.104 62.141 38.387 67.139l0.054 873.283-0.054 1.509c-0.243 5.039-3.786 50.041-38.71 68.163zM662.447 12.679v0c-0.768-7.761-4.541-19.469-9.364-21.949-3.207-1.63-13.743-1.186-32.957 10.604l-321.603 232.933h-237.878c-4.298 0-6.171 1.549-6.427 2.6v420.473c0 3.234 3.301 4.972 6.427 4.972h231.545l327.828 232.435c17.812 10.968 28.712 12.557 32.687 10.509 5.107-2.587 9.027-14.969 9.741-22.878v-869.699zM1087.636 449.63l157.211 157.197c10.509 10.523 10.509 27.594 0 38.117-10.523 10.523-27.594 10.523-38.104 0l-157.211-157.211-157.736 157.723c-10.509 10.523-27.608 10.523-38.104 0-10.509-10.523-10.509-27.594 0-38.104l157.709-157.723-157.723-157.709c-10.509-10.523-10.509-27.608 0-38.104 5.282-5.268 12.153-7.896 19.052-7.896 6.912 0 13.784 2.627 19.052 7.896l157.709 157.709 157.211-157.211c5.255-5.268 12.153-7.896 19.052-7.896s13.784 2.627 19.052 7.896c10.523 10.523 10.523 27.608 0 38.104l-157.171 157.211z" />
<glyph unicode="&#xe95f;" glyph-name="410" horiz-adv-x="704" d="M576 645.136v129.424c0 102.24-82.528 185.44-184 185.44h-80c-101.456 0-184-83.2-184-185.44v-129.408c-71.264-4.224-128-63.808-128-136.672v-217.696c0-195.632 157.92-354.784 352-354.784s352 159.152 352 354.768v217.696c0 72.864-56.72 132.464-128 136.672zM176 774.56c0 75.568 61.024 137.072 136 137.072h80c75.008 0 136-61.488 136-137.072v-129.008h-352v129.008zM656 290.768c0-168.96-136.336-306.384-304-306.384-167.632 0-304 137.456-304 306.384v217.696c0 48.912 39.472 88.688 88 88.688h432c48.528 0 88-39.776 88-88.688v-217.696zM352 403.744c-35.344 0-64-28.912-64-64.496 0-27.056 16.56-50.128 40-59.712v-77.552c0-13.376 10.736-24.208 24-24.208s24 10.832 24 24.208v77.552c23.44 9.6 40 32.656 40 59.712 0 35.632-28.656 64.496-64 64.496z" />
<glyph unicode="&#xe960;" glyph-name="412" horiz-adv-x="704" d="M568 645.552h-392v129.008c0 75.584 61.008 137.072 136 137.072h80c74.976 0 136-61.488 136-137.072h48c0 102.24-82.56 185.44-184 185.44h-80c-101.472 0-184-83.2-184-185.44v-129.408c-71.264-4.24-128-63.808-128-136.672v-217.696c0-195.632 157.904-354.784 352-354.784s352 159.152 352 354.768v217.696c0 75.584-61.024 137.088-136 137.088zM656 290.768c0-168.96-136.368-306.384-304-306.384s-304 137.456-304 306.384v217.696c0 48.912 39.472 88.688 88 88.688h432c48.528 0 88-39.776 88-88.688v-217.696zM352 403.744c-35.344 0-64-28.912-64-64.496 0-27.056 16.544-50.128 40-59.712v-77.552c0-13.376 10.736-24.208 24-24.208s24 10.832 24 24.208v77.552c23.44 9.6 40 32.656 40 59.712 0 35.632-28.656 64.496-64 64.496z" />
<glyph unicode="&#xe961;" glyph-name="450" horiz-adv-x="593" d="M349.633 129.123c0-29.15-23.824-52.781-53.212-52.781s-53.212 23.631-53.212 52.781c0 29.15 23.824 52.781 53.212 52.781s53.212-23.631 53.212-52.781zM402.037 845.546h-211.196c-18.019 0-32.624-12.288-32.624-27.432s14.605-27.414 32.624-27.414h211.196c17.983 0 32.624 12.27 32.624 27.414 0 15.162-14.641 27.432-32.624 27.432zM483.669 960h-374.497c-60.182 0-109.173-48.595-109.173-108.328v-807.361c0-59.733 48.99-108.31 109.173-108.31h374.497c60.182 0 109.173 48.577 109.173 108.31v807.361c0 59.733-48.99 108.328-109.173 108.328zM538.265 44.31c0-29.786-24.54-54.182-54.595-54.182h-374.497c-30.037 0-54.595 24.36-54.595 54.182v807.361c0 29.786 24.558 54.164 54.595 54.164h374.497c30.055 0 54.595-24.36 54.595-54.164v-807.361z" />
<glyph unicode="&#xe962;" glyph-name="500" horiz-adv-x="1458" d="M1396.364 960.931h-1334.303c-34.288 0-62.061-27.772-62.061-62.061v-899.879c0-34.257 27.772-62.061 62.061-62.061h1334.303c34.288 0 62.061 27.803 62.061 62.061v899.879c0 34.288-27.772 62.061-62.061 62.061zM341.333 92.051h-155.152v682.667h155.152c188.509 0 341.333-152.824 341.333-341.333 0-188.478-152.824-341.333-341.333-341.333zM1272.242 92.051h-155.152c-188.478 0-341.333 152.855-341.333 341.333 0 188.509 152.855 341.333 341.333 341.333h155.152v-682.667z" />
<glyph unicode="&#xe963;" glyph-name="501" d="M967.048 960h-910.155c-31.443 0-56.892-25.48-56.892-56.922v-910.246c0-31.413 25.449-56.832 56.892-56.832h910.155c31.413 0 56.952 25.419 56.952 56.892v910.185c0 31.443-25.54 56.922-56.952 56.922zM210.884 203.445h-111.104v341.323h111.104v-341.323zM155.347 584.734c-37.918 0-66.379 29.124-66.379 66.379s28.431 66.409 66.379 66.409c37.948 0 66.379-29.124 66.379-66.409 0-37.256-28.431-66.379-66.379-66.379zM595.576 203.445h-111.074v201.788c0 29.094-14.246 46.050-38.611 46.050-37.225 0-60.958-33.882-60.958-98.214v-149.624h-111.044v341.323h111.074v-39.304c18.281 26.413 54.874 44.695 96.858 44.695 77.944 0 113.754-41.291 113.754-112.399v-234.315zM659.968 203.445v256h-36.593v85.323h36.593v6.114c0 87.371 51.471 132.066 135.469 132.066 15.631 0 31.804-2.018 43.972-5.421v-92.792c-7.379 6.084-18.974 11.505-33.19 11.505-23.070 0-35.238-14.938-35.238-37.918v-13.553h69.12v-85.323h-69.090v-256h-111.044zM896.361 197.963c-35.87 0-62.976 27.136-62.976 63.036s27.076 62.946 62.976 62.946 63.006-27.046 63.006-62.946-27.136-63.036-63.006-63.036z" />
<glyph unicode="&#xe964;" glyph-name="502" d="M731.799 578.65h-66.379v-96.166h66.379c33.882 0 50.839 18.944 50.839 48.068s-16.956 48.098-50.839 48.098zM967.048 960h-910.155c-31.413 0-56.892-25.48-56.892-56.922v-910.246c0-31.413 25.48-56.832 56.892-56.832h910.155c31.413 0 56.952 25.419 56.952 56.892v910.185c0 31.443-25.54 56.922-56.952 56.922zM509.621 574.584h-128.663v-371.17h-120.561v371.17h-128.693v102.972h377.916v-102.972zM739.93 383.518h-74.541v-180.104h-120.561v474.142h195.102c100.232 0 157.816-58.278 157.816-147.004 0.030-88.727-57.585-147.034-157.816-147.034z" />
<glyph unicode="&#xe965;" glyph-name="503" d="M967.048 956.597h-910.155c-31.443 0-56.892-25.389-56.892-56.681v-907.264c0-31.322 25.449-56.651 56.892-56.651h910.155c31.413 0 56.952 25.329 56.952 56.651v907.264c0 31.292-25.54 56.681-56.952 56.681zM682.556 615.243l-172.002-423.966h-113.122l155.106 379.422h-177.453v93.154h307.471v-48.61z" />
</font>
</defs>
</svg>
